<svg width="22" height="22" viewBox="0 0 22 22" fill="none" xmlns="http://www.w3.org/2000/svg">
<path d="M6.09006 0.302586C5.01841 0.414623 4.0393 0.745863 3.24043 1.27195C2.84587 1.53012 2.21261 2.1585 1.95444 2.54333C1.65243 2.99147 1.32119 3.69292 1.19454 4.16055C0.926626 5.13479 0.936368 4.91558 0.916883 10.2641C0.897399 15.2814 0.912012 15.9001 1.07276 16.6941C1.48681 18.7107 2.75819 20.1526 4.65307 20.7518C5.70037 21.083 5.57859 21.0781 11.3022 21.0781C16.8212 21.0781 16.8018 21.0781 17.7565 20.8297C18.3167 20.6836 19.174 20.2744 19.6076 19.9431C20.7084 19.1053 21.3709 17.9265 21.6632 16.28C21.7557 15.7491 21.7557 5.60729 21.6632 5.07633C21.4294 3.75138 20.9764 2.77227 20.2408 1.98801C19.4517 1.15017 18.4872 0.653311 17.0892 0.365911C16.7579 0.297714 16.0808 0.287973 11.5945 0.278231C8.78382 0.268488 6.3044 0.283102 6.09006 0.302586ZM16.4657 1.91494C17.1233 1.99775 17.5812 2.12928 18.0975 2.38258C18.4823 2.56768 18.6333 2.67972 18.9792 3.02557C19.325 3.37142 19.4371 3.52243 19.6222 3.90725C19.8852 4.43334 20.0167 4.91071 20.0898 5.58293C20.1531 6.13338 20.1629 11.214 20.1044 11.214C20.0801 11.214 20.0216 11.175 19.9778 11.1215C19.9339 11.0727 19.7439 10.9607 19.5588 10.8779C18.9353 10.5856 18.156 10.5954 17.5373 10.8925C17.2597 11.024 16.7725 11.4235 14.9799 12.9676C13.7622 14.0149 12.671 14.9404 12.5541 15.0233C12.1108 15.3301 11.4386 15.4665 10.8784 15.3545C10.4839 15.2766 10.1088 15.0866 9.68986 14.7456C9.06148 14.2293 8.70101 14.088 8.00443 14.088C7.2835 14.088 7.21043 14.127 4.9356 15.6516C3.8201 16.3969 2.89458 17.0107 2.87996 17.0107C2.85074 17.0107 2.72409 16.6161 2.62179 16.207C2.54873 15.9001 2.53898 15.3642 2.52437 11.0192C2.50001 5.10556 2.50976 4.9643 3.03097 3.90725C3.21608 3.52243 3.32811 3.37142 3.67396 3.02557C4.01982 2.67972 4.17082 2.56768 4.55565 2.38258C5.03789 2.14389 5.55911 1.98801 6.13878 1.91494C6.65999 1.85162 15.9347 1.85162 16.4657 1.91494Z" fill="black"/>
<path d="M7.84458 4.05409C7.148 4.13203 6.36374 4.67273 6.02276 5.31572C5.50641 6.28508 5.67203 7.498 6.43194 8.26278C7.42078 9.26137 8.99904 9.26137 9.98789 8.26278C10.7527 7.48826 10.9183 6.29482 10.3971 5.31572C10.061 4.68247 9.30593 4.14177 8.66293 4.0687C8.53628 4.05409 8.37553 4.03947 8.30734 4.02973C8.23914 4.02486 8.03455 4.0346 7.84458 4.05409Z" fill="black"/>
</svg>
