<svg width="13" height="13" viewBox="0 0 13 13" fill="none" xmlns="http://www.w3.org/2000/svg">
<path d="M1.61582 12.6716C1.95534 12.7018 2.25336 12.5396 2.51366 12.2793C3.76612 11.0231 5.01857 9.77062 6.2748 8.51816C6.44833 8.34463 6.44833 8.34463 6.62564 8.52193C7.87432 9.77062 9.13055 11.0155 10.3717 12.2718C10.7489 12.6528 11.1979 12.7471 11.6883 12.6452C12.4843 12.4755 12.7823 11.4343 12.2126 10.8231C11.76 10.3327 11.2809 9.87247 10.8093 9.40092C9.95672 8.54457 9.10414 7.69199 8.24779 6.84319C8.12708 6.72624 8.13085 6.66211 8.24779 6.54517C9.53043 5.27008 10.8131 3.98744 12.0919 2.7048C12.6427 2.14271 12.5258 1.25618 11.8543 0.860073C11.4016 0.592228 10.8168 0.678995 10.417 1.0751C9.23995 2.24456 8.06672 3.4178 6.88971 4.59103C6.78408 4.69666 6.67091 4.79852 6.56905 4.91169C6.47474 5.02109 6.40684 5.006 6.31252 4.90792C5.4524 4.04403 4.58851 3.18013 3.72839 2.32001C3.30965 1.90127 2.89845 1.47498 2.47216 1.07133C1.98929 0.61109 1.31025 0.61109 0.853779 1.04492C0.355815 1.52025 0.352042 2.24079 0.850006 2.74253C1.81576 3.71582 2.78905 4.68157 3.75857 5.65109C4.03396 5.92648 4.30935 6.20187 4.58474 6.47726C4.78091 6.67343 4.78091 6.67343 4.59228 6.86582C3.31719 8.13337 2.04588 9.40469 0.770784 10.6722C0.544437 10.8986 0.397311 11.1551 0.393538 11.4871C0.378449 12.2189 0.842461 12.683 1.61582 12.6716Z" fill="white"/>
</svg>
