<svg width="26" height="26" viewBox="0 0 26 26" fill="none" xmlns="http://www.w3.org/2000/svg">
<path d="M14.0035 14.0612C13.988 14.327 14.1994 14.4396 14.3877 14.2513C15.2651 13.3739 16.1426 12.4964 17.02 11.6268C17.6781 10.9766 18.532 10.9374 19.1431 11.5328C19.715 12.0969 19.715 12.9978 19.0883 13.6324C17.2864 15.4578 15.4688 17.2832 13.6356 19.0851C12.9775 19.7353 12.1549 19.7432 11.5046 19.1086C9.65574 17.2832 7.82251 15.4499 5.99712 13.601C5.50355 13.1075 5.42521 12.4729 5.69941 11.9088C5.95794 11.3761 6.52201 11.0784 7.15659 11.1254C7.53264 11.1567 7.81468 11.3448 8.07321 11.6033C8.96632 12.4964 9.85943 13.3974 10.7604 14.2905C10.8466 14.3766 10.9249 14.5568 11.0581 14.4863C11.1834 14.4237 11.1208 14.2513 11.1208 14.1259C11.1208 9.92675 11.1208 5.71973 11.1286 1.52054C11.1286 0.56475 11.7162 -0.0228232 12.6249 0.000679707C13.377 0.0163483 13.9646 0.580419 13.9959 1.33251C14.0116 1.82607 14.0038 2.32747 14.0038 2.82103C14.0038 6.56583 14.0038 10.3106 14.0038 14.0554C14.0037 14.0574 14.0036 14.0593 14.0035 14.0612Z" fill="#ADADAD"/>
<path d="M12.5349 25.1097C10.2003 25.1097 7.86565 25.1175 5.52319 25.1097C2.45997 25.1019 0.0156686 22.6419 0 19.5787C0 19.1086 0 18.6386 0 18.1685C0.00783431 17.3146 0.579739 16.6957 1.37884 16.68C2.20144 16.6643 2.83602 17.2754 2.86736 18.1293C2.88303 18.5837 2.86736 19.0459 2.87519 19.5003C2.90653 21.0672 4.04251 22.2345 5.60937 22.2423C10.2394 22.258 14.8774 22.258 19.5074 22.2423C21.09 22.2345 22.2338 21.0672 22.2573 19.4768C22.2651 19.0224 22.2495 18.5602 22.2651 18.1058C22.2965 17.4007 22.7587 16.8523 23.4246 16.7113C24.0592 16.5781 24.6938 16.8837 24.9915 17.4791C25.0385 17.5731 25.0933 17.6749 25.1011 17.769C25.25 19.7589 25.1873 21.7018 23.7145 23.2843C22.6412 24.4281 21.3328 25.1019 19.7425 25.1097C17.3373 25.1254 14.9322 25.1097 12.5349 25.1097Z" fill="#ADADAD"/>
</svg>
