<svg width="40" height="33" viewBox="0 0 40 33" fill="none" xmlns="http://www.w3.org/2000/svg">
<g clip-path="url(#clip0_6340_11343)">
<g clip-path="url(#clip1_6340_11343)">
<g clip-path="url(#clip2_6340_11343)">
<path d="M29.0859 -0.00488281H2.25213C1.65509 -0.00404171 1.08274 0.233507 0.660563 0.655682C0.238389 1.07786 0.000841106 1.65021 0 2.24725L0 18.346C0.000280145 18.9434 0.23758 19.5163 0.659815 19.939C1.08205 20.3616 1.65472 20.5994 2.25213 20.6003H3.99237V26.5936C3.99209 26.7804 4.04725 26.963 4.15088 27.1184C4.2545 27.2738 4.40192 27.3949 4.57446 27.4664C4.74699 27.5379 4.93687 27.5566 5.12003 27.5201C5.30319 27.4836 5.47139 27.3935 5.60331 27.2613L12.2633 20.6003H13.5997C13.85 20.6003 14.0901 20.5008 14.2671 20.3239C14.444 20.1469 14.5435 19.9068 14.5435 19.6565C14.5435 19.4062 14.444 19.1661 14.2671 18.9892C14.0901 18.8122 13.85 18.7127 13.5997 18.7127C13.5997 18.7127 11.8266 18.7127 11.8086 18.7127C11.5811 18.7277 11.3668 18.8249 11.2056 18.9862L5.87992 24.3097C5.87992 24.3097 5.87992 19.5913 5.87992 19.5669C5.85901 19.3323 5.75105 19.114 5.57728 18.9549C5.4035 18.7958 5.1765 18.7076 4.94091 18.7074H2.25213C2.15516 18.7074 2.06216 18.6689 1.99359 18.6003C1.92502 18.5318 1.88649 18.4388 1.88649 18.3418V2.24725C1.88649 2.15028 1.92502 2.05728 1.99359 1.98871C2.06216 1.92013 2.15516 1.88161 2.25213 1.88161H29.0859C29.1829 1.88161 29.2759 1.92013 29.3444 1.98871C29.413 2.05728 29.4515 2.15028 29.4515 2.24725V8.42392C29.4515 8.67423 29.551 8.91428 29.728 9.09127C29.905 9.26827 30.145 9.3677 30.3953 9.3677C30.6456 9.3677 30.8857 9.26827 31.0627 9.09127C31.2397 8.91428 31.3391 8.67423 31.3391 8.42392V2.24725C31.3382 1.65002 31.1006 1.07751 30.6782 0.655306C30.2557 0.233101 29.6831 -0.0043221 29.0859 -0.00488281Z" fill="#F91942"/>
<path d="M19.0767 12.7275H36.0339C36.5961 12.7275 37.1352 12.9509 37.5327 13.3484C37.9303 13.7459 38.1536 14.285 38.1536 14.8472V24.3856C38.1536 24.9478 37.9303 25.4869 37.5327 25.8845C37.1352 26.282 36.5961 26.5053 36.0339 26.5053V29.1814L30.9955 25.9023L19.0767 26.5053C18.5145 26.5053 17.9754 26.282 17.5779 25.8845C17.1804 25.4869 16.957 24.9478 16.957 24.3856V14.8472C16.957 14.285 17.1804 13.7459 17.5779 13.3484C17.9754 12.9509 18.5145 12.7275 19.0767 12.7275Z" fill="#F91942" fill-opacity="0.18"/>
<path d="M37.7483 11.5371H18.965C18.368 11.538 17.7956 11.7755 17.3735 12.1977C16.9513 12.6199 16.7137 13.1922 16.7129 13.7893V24.7722C16.7137 25.3693 16.9513 25.9416 17.3735 26.3638C17.7956 26.786 18.368 27.0235 18.965 27.0244H30.7291L35.4983 31.7936C35.6302 31.9258 35.7984 32.0159 35.9816 32.0524C36.1648 32.0889 36.3546 32.0702 36.5272 31.9987C36.6997 31.9272 36.8471 31.8061 36.9507 31.6507C37.0544 31.4953 37.1095 31.3127 37.1093 31.1259V27.0191H37.7579C38.3549 27.0182 38.9273 26.7807 39.3494 26.3585C39.7716 25.9363 40.0092 25.364 40.01 24.7669V13.7893C40.0096 13.4928 39.9507 13.1994 39.8368 12.9257C39.7229 12.652 39.5561 12.4035 39.3461 12.1943C39.136 11.9851 38.8868 11.8194 38.6126 11.7067C38.3385 11.5939 38.0448 11.5363 37.7483 11.5371ZM38.114 24.7722C38.114 24.8692 38.0755 24.9622 38.0069 25.0308C37.9383 25.0994 37.8453 25.1379 37.7483 25.1379H36.1586C35.921 25.138 35.6922 25.2278 35.5179 25.3893C35.3436 25.5508 35.2367 25.7721 35.2185 26.0091C35.2185 26.0292 35.2185 28.8441 35.2185 28.8441L31.7921 25.4177L31.7815 25.4071L31.7434 25.3721C31.5717 25.221 31.3509 25.1377 31.1223 25.1379H18.965C18.868 25.1379 18.775 25.0994 18.7065 25.0308C18.6379 24.9622 18.5994 24.8692 18.5994 24.7722V13.7893C18.5994 13.6923 18.6379 13.5993 18.7065 13.5307C18.775 13.4621 18.868 13.4236 18.965 13.4236H37.7473C37.8443 13.4236 37.9372 13.4621 38.0058 13.5307C38.0744 13.5993 38.1129 13.6923 38.1129 13.7893L38.114 24.7722Z" fill="#F91942"/>
<path d="M28.3573 18.3369C28.1708 18.3369 27.9884 18.3922 27.8333 18.4959C27.6782 18.5995 27.5572 18.7468 27.4858 18.9192C27.4145 19.0915 27.3958 19.2812 27.4322 19.4642C27.4686 19.6471 27.5584 19.8152 27.6903 19.9471C27.8222 20.079 27.9903 20.1689 28.1733 20.2053C28.3562 20.2417 28.5459 20.223 28.7183 20.1516C28.8906 20.0802 29.038 19.9593 29.1416 19.8042C29.2452 19.6491 29.3005 19.4667 29.3005 19.2802C29.3003 19.0301 29.2008 18.7903 29.024 18.6135C28.8471 18.4366 28.6074 18.3372 28.3573 18.3369Z" fill="#F91942"/>
<path d="M24.2556 6.2334H7.08636C6.83605 6.2334 6.59599 6.33284 6.419 6.50984C6.24201 6.68683 6.14258 6.92687 6.14258 7.17718C6.14258 7.42748 6.24201 7.66754 6.419 7.84453C6.59599 8.02153 6.83605 8.12096 7.08636 8.12096H24.2556C24.5059 8.12096 24.7459 8.02153 24.9229 7.84453C25.0999 7.66754 25.1993 7.42748 25.1993 7.17718C25.1993 6.92687 25.0999 6.68683 24.9229 6.50984C24.7459 6.33284 24.5059 6.2334 24.2556 6.2334Z" fill="#F91942"/>
<path d="M13.6004 12.4727H7.08244C6.83214 12.4727 6.59209 12.5721 6.41509 12.7491C6.2381 12.9261 6.13867 13.1661 6.13867 13.4164C6.13867 13.6667 6.2381 13.9068 6.41509 14.0838C6.59209 14.2608 6.83214 14.3602 7.08244 14.3602H13.6004C13.8507 14.3602 14.0907 14.2608 14.2677 14.0838C14.4447 13.9068 14.5442 13.6667 14.5442 13.4164C14.5442 13.1661 14.4447 12.9261 14.2677 12.7491C14.0907 12.5721 13.8507 12.4727 13.6004 12.4727Z" fill="#F91942"/>
<path d="M23.9706 18.3369C23.784 18.3369 23.6017 18.3922 23.4466 18.4959C23.2914 18.5995 23.1705 18.7468 23.0992 18.9192C23.0278 19.0915 23.0091 19.2812 23.0455 19.4642C23.0819 19.6471 23.1717 19.8152 23.3036 19.9471C23.4355 20.079 23.6036 20.1689 23.7866 20.2053C23.9696 20.2417 24.1592 20.223 24.3316 20.1516C24.5039 20.0802 24.6512 19.9593 24.7549 19.8042C24.8585 19.6491 24.9138 19.4667 24.9138 19.2802C24.9136 19.0301 24.8141 18.7903 24.6373 18.6135C24.4604 18.4366 24.2207 18.3372 23.9706 18.3369Z" fill="#F91942"/>
<path d="M32.7401 18.3369C32.5536 18.3369 32.3712 18.3922 32.2161 18.4959C32.061 18.5995 31.9401 18.7468 31.8687 18.9192C31.7973 19.0915 31.7786 19.2812 31.815 19.4642C31.8514 19.6471 31.9412 19.8152 32.0732 19.9471C32.2051 20.079 32.3731 20.1689 32.5561 20.2053C32.7391 20.2417 32.9287 20.223 33.1011 20.1516C33.2735 20.0802 33.4208 19.9593 33.5244 19.8042C33.6281 19.6491 33.6834 19.4667 33.6834 19.2802C33.6831 19.0301 33.5836 18.7903 33.4068 18.6135C33.2299 18.4366 32.9902 18.3372 32.7401 18.3369Z" fill="#F91942"/>
</g>
</g>
</g>
<defs>
<clipPath id="clip0_6340_11343">
<rect width="40" height="32.06" fill="white"/>
</clipPath>
<clipPath id="clip1_6340_11343">
<rect width="40" height="32.06" fill="white"/>
</clipPath>
<clipPath id="clip2_6340_11343">
<rect width="40" height="32.0693" fill="white" transform="translate(0 -0.00488281)"/>
</clipPath>
</defs>
</svg>
