<svg width="22" height="22" viewBox="0 0 22 22" fill="none" xmlns="http://www.w3.org/2000/svg">
<path d="M9.92751 19.5115C5.04925 19.5115 0.904683 16.0799 0.131967 11.3307C-0.750022 5.96881 2.89501 1.22734 7.89815 0.208572C13.2837 -0.886792 18.5601 2.4376 19.684 7.7076C20.285 10.5341 19.723 13.1614 17.9903 15.513C17.7717 15.8041 17.803 15.9726 18.0527 16.2101C18.9113 17.022 20.7984 19.3113 21.6414 20.1385C21.9614 20.4526 22.0863 20.8279 21.938 21.2569C21.7975 21.6705 21.5009 21.908 21.0638 21.9846C20.6579 22.0535 20.3301 21.885 20.0491 21.6092C19.2061 20.7743 17.3112 18.508 16.4761 17.6655C16.2575 17.451 16.1092 17.4357 15.8517 17.6195C14.0955 18.8834 12.1208 19.5345 9.92751 19.5115ZM9.97434 2.17716C5.69708 2.1695 2.24718 5.53219 2.23157 9.72215C2.21596 13.981 5.65025 17.3897 9.97434 17.3897C14.2438 17.3974 17.7249 13.9887 17.7327 9.79875C17.7327 5.57049 14.2906 2.18482 9.97434 2.17716Z" fill="#AFAFAF"/>
</svg>
