<svg width="35" height="36" viewBox="0 0 35 36" fill="none" xmlns="http://www.w3.org/2000/svg">
<path d="M15.364 1.02647C8.93322 1.50919 3.27971 5.77182 1.02158 11.8508C-0.35293 15.5489 -0.328385 19.8851 1.08704 23.5505C4.31878 31.9612 13.654 36.2566 22.2038 33.2866C23.5783 32.8039 25.5174 31.7812 26.4337 31.0612L26.7446 30.8076L29.2155 33.2703C31.6127 35.6593 31.7027 35.7329 32.169 35.8639C33.3636 36.2075 34.5908 35.5366 34.9181 34.3503C35.0326 33.9412 35.0163 33.6303 34.869 33.1148C34.7463 32.6976 34.599 32.5339 32.3 30.2185L29.8618 27.764L30.4673 26.8641C33.3145 22.6342 34.0426 17.2425 32.4309 12.3826C31.6127 9.9199 30.4264 7.96449 28.6591 6.13181C27.6201 5.06001 26.851 4.41367 25.7137 3.67732C22.6865 1.69736 18.9884 0.756477 15.364 1.02647ZM17.8594 5.38728C19.4548 5.57546 20.772 5.95181 22.0893 6.61452C25.6156 8.38994 28.021 11.5971 28.7491 15.4916C28.9618 16.6207 28.9618 18.617 28.7491 19.746C28.021 23.6732 25.5419 26.9295 21.9502 28.664C18.0476 30.554 13.4331 30.2267 9.8332 27.8131C5.24331 24.745 3.25517 19.0588 4.94058 13.8389C5.23512 12.9062 6.02874 11.3435 6.61782 10.5008C7.26417 9.59264 8.56505 8.28358 9.44866 7.65359C11.8868 5.91908 15.0449 5.0682 17.8594 5.38728Z" fill="white"/>
</svg>
