<svg width="21" height="18" viewBox="0 0 21 18" fill="none" xmlns="http://www.w3.org/2000/svg">
<path d="M20.0699 1.19066C20.0073 1.93721 19.8196 2.66359 19.6757 3.39669C18.9749 6.96804 18.2616 10.5394 17.5482 14.1107C17.3668 15.0322 17.1791 15.9469 16.9976 16.8683C16.9788 16.9692 16.9538 17.0633 16.9225 17.1575C16.666 17.9578 16.1278 18.2067 15.4208 17.8233C14.939 17.5543 14.5322 17.1642 14.088 16.8212C13.0493 16.0141 12.0106 15.2003 10.9906 14.373C10.7529 14.1847 10.609 14.2116 10.4087 14.4269C9.77675 15.0994 9.13225 15.7518 8.49402 16.4109C8.31881 16.5925 8.14361 16.7607 7.90584 16.8414C7.58046 16.949 7.49912 16.8952 7.52415 16.532C7.58672 15.5164 7.6618 14.5008 7.73063 13.4853C7.76192 13.0414 7.79946 12.5907 7.81823 12.1468C7.82449 11.9383 7.89332 11.7904 8.03724 11.6491C10.5276 9.24806 13.018 6.84698 15.5084 4.43918C15.7774 4.17687 16.0527 3.91457 16.3218 3.65227C16.3969 3.57829 16.5158 3.49758 16.4595 3.37651C16.3969 3.242 16.253 3.28235 16.1529 3.32271C15.9964 3.38324 15.8463 3.47067 15.7086 3.56483C12.3422 5.82467 8.96956 8.09124 5.60943 10.3645C5.38417 10.5192 5.19646 10.5461 4.93991 10.4587C3.60086 9.99461 2.25556 9.55071 0.910253 9.10682C0.69125 9.03283 0.472247 8.95885 0.278273 8.81761C-0.0533599 8.57549 -0.0909033 8.21902 0.178158 7.90291C0.378389 7.67424 0.628678 7.53973 0.891482 7.43212C3.67595 6.28202 6.45416 5.13192 9.23863 3.98855C12.3672 2.69049 15.4896 1.40588 18.6182 0.121272C19.3003 -0.154482 19.8196 0.0472892 20.0136 0.652603C20.0699 0.827471 20.0636 1.00907 20.0699 1.19066Z" fill="white"/>
</svg>
