<svg width="23" height="23" viewBox="0 0 23 23" fill="none" xmlns="http://www.w3.org/2000/svg">
<path d="M5.16758 15.6256L5.81397 13.505H8.56964L9.21603 15.6256H10.9499L8.19428 7.37671H6.28572L3.51758 15.6256H5.16758ZM7.23376 8.95414L8.24304 12.2893H6.15191L7.16119 8.953L7.23376 8.95414ZM13.7771 9.12991C12.321 9.12991 11.3661 10.1823 11.3661 11.9389V12.8949C11.3661 14.6537 12.3085 15.7038 13.7589 15.7038C14.1488 15.741 14.5405 15.6541 14.8781 15.4556C15.2158 15.257 15.4821 14.957 15.6391 14.5982H15.7174V15.6256H17.2823V6.94238H15.6879V10.1879H15.6153C15.4563 9.84307 15.1942 9.55601 14.8651 9.36631C14.5361 9.17662 14.1564 9.09363 13.7782 9.12877L13.7771 9.12991ZM14.3089 10.3989C14.5055 10.4011 14.6994 10.4445 14.8781 10.5265C15.0568 10.6084 15.2163 10.727 15.3462 10.8746C15.4762 11.0222 15.5736 11.1954 15.6323 11.383C15.6909 11.5707 15.7095 11.7685 15.6868 11.9638V12.7917C15.6868 13.8372 15.1424 14.4417 14.3339 14.4417C13.5253 14.4417 12.9969 13.8248 12.9969 12.7259V12.1033C12.9969 11.0101 13.506 10.4023 14.3089 10.4023V10.3989Z" fill="#F91942"/>
<path d="M19.3301 4.62557C19.6949 4.62557 20.0448 4.77049 20.3027 5.02846C20.5607 5.28643 20.7056 5.63631 20.7056 6.00113V17.0011C20.7056 17.366 20.5607 17.7158 20.3027 17.9738C20.0448 18.2318 19.6949 18.3767 19.3301 18.3767H2.83008C2.46526 18.3767 2.11537 18.2318 1.85741 17.9738C1.59944 17.7158 1.45451 17.366 1.45451 17.0011V6.00113C1.45451 5.63631 1.59944 5.28643 1.85741 5.02846C2.11537 4.77049 2.46526 4.62557 2.83008 4.62557H19.3301ZM2.83008 3.25C2.10073 3.25 1.40126 3.53973 0.885534 4.05546C0.369809 4.57118 0.0800781 5.27065 0.0800781 6L0.0800781 17C0.0800781 17.7293 0.369809 18.4288 0.885534 18.9445C1.40126 19.4603 2.10073 19.75 2.83008 19.75H19.3301C20.0594 19.75 20.7589 19.4603 21.2746 18.9445C21.7903 18.4288 22.0801 17.7293 22.0801 17V6C22.0801 5.27065 21.7903 4.57118 21.2746 4.05546C20.7589 3.53973 20.0594 3.25 19.3301 3.25H2.83008Z" fill="#F91942"/>
<path opacity="0.15" d="M17.0911 6.65234H2.34886C1.72256 6.65234 1.21484 7.16006 1.21484 7.78636V17.9925C1.21484 18.6189 1.72256 19.1266 2.34886 19.1266H17.0911C17.7174 19.1266 18.2252 18.6189 18.2252 17.9925V7.78636C18.2252 7.16006 17.7174 6.65234 17.0911 6.65234Z" fill="#F91942"/>
</svg>
