<svg width="28" height="29" viewBox="0 0 28 29" fill="none" xmlns="http://www.w3.org/2000/svg">
<g clip-path="url(#clip0_6340_11375)">
<g clip-path="url(#clip1_6340_11375)">
<g clip-path="url(#clip2_6340_11375)">
<path d="M26.9454 12.1553H15.5247C15.2824 12.1553 15.0501 12.2515 14.8788 12.4228C14.7075 12.5941 14.6113 12.8264 14.6113 13.0686V16.7124C14.6113 16.9546 14.7075 17.1869 14.8788 17.3582C15.0501 17.5295 15.2824 17.6257 15.5247 17.6257H21.9558C21.2514 19.4479 19.9466 20.9753 18.257 21.9559L20.999 26.7032C23.1283 25.5067 24.8998 23.7637 26.1308 21.6541C27.3618 19.5445 28.0076 17.1447 28.0016 14.7022C28.0075 14.1009 27.9548 13.5004 27.8442 12.9093C27.8061 12.6984 27.6953 12.5075 27.5311 12.3698C27.3669 12.232 27.1597 12.1561 26.9454 12.1553Z" fill="#167EE6"/>
<path d="M14.0026 23.1103C12.5079 23.1085 11.04 22.7134 9.74628 21.9649C8.45256 21.2164 7.37854 20.1406 6.63205 18.8457L1.88477 21.5819C2.80204 23.1752 4.02438 24.5721 5.4819 25.6926C6.93942 26.8132 8.60352 27.6354 10.379 28.1124C12.1546 28.5893 14.0067 28.7116 15.8295 28.4722C17.6524 28.2329 19.4101 27.6365 21.0023 26.7173V26.7106L18.2603 21.9633C16.9675 22.7154 15.4983 23.1112 14.0026 23.1103Z" fill="#12B347"/>
<path d="M21.0027 26.7102L18.2607 21.9629C16.9674 22.7145 15.4978 23.1096 14.002 23.108V28.5861C16.4599 28.5873 18.8747 27.9403 21.0027 26.7102Z" fill="#0F993E"/>
<path d="M5.48117 14.5897C5.4808 13.0942 5.87691 11.6254 6.62914 10.3329L1.88185 7.59668C0.649207 9.72126 0 12.1339 0 14.5902C0 17.0464 0.649207 19.4591 1.88185 21.5836L6.62914 18.8475C5.87691 17.555 5.4808 16.0861 5.48117 14.5906V14.5897Z" fill="#FFD500"/>
<path d="M14.0026 6.06787C15.9779 6.06537 17.8921 6.7524 19.4151 8.01042C19.5892 8.1552 19.8111 8.22979 20.0373 8.21961C20.2636 8.20944 20.4779 8.11522 20.6383 7.95539L23.222 5.37272C23.311 5.28304 23.3806 5.17597 23.4264 5.05821C23.4723 4.94044 23.4933 4.8145 23.4884 4.68822C23.4834 4.56195 23.4524 4.43806 23.3975 4.32427C23.3425 4.21048 23.2647 4.10923 23.1689 4.02684C21.6127 2.67154 19.7757 1.67785 17.7897 1.11721C15.8038 0.556567 13.7183 0.442901 11.6831 0.78438C9.648 1.12586 7.71382 1.914 6.01962 3.09215C4.32542 4.2703 2.91329 5.80918 1.88477 7.59816L6.63205 10.3343C7.37837 9.03893 8.45244 7.96273 9.74636 7.21383C11.0403 6.46493 12.5085 6.06971 14.0035 6.06787H14.0026Z" fill="#FF4B26"/>
<path d="M19.4087 8.00959C19.5828 8.15436 19.8047 8.22896 20.031 8.21878C20.2572 8.2086 20.4715 8.11438 20.6319 7.95456L23.2175 5.37189C23.3065 5.2822 23.3761 5.17514 23.422 5.05737C23.4678 4.9396 23.4889 4.81366 23.4839 4.68739C23.4789 4.56111 23.448 4.43722 23.393 4.32343C23.338 4.20964 23.2602 4.10839 23.1644 4.026C20.625 1.8124 17.3707 0.591946 14.002 0.589844V6.068C15.9753 6.06685 17.8873 6.75283 19.4087 8.00959Z" fill="#D93F21"/>
</g>
</g>
</g>
<defs>
<clipPath id="clip0_6340_11375">
<rect width="28" height="27.98" fill="white" transform="translate(0 0.599609)"/>
</clipPath>
<clipPath id="clip1_6340_11375">
<rect width="28" height="27.98" fill="white" transform="translate(0 0.599609)"/>
</clipPath>
<clipPath id="clip2_6340_11375">
<rect width="28" height="27.999" fill="white" transform="translate(0 0.589844)"/>
</clipPath>
</defs>
</svg>
