<svg width="20" height="24" viewBox="0 0 20 24" fill="none" xmlns="http://www.w3.org/2000/svg">
<path d="M8.6247 0.730978C6.05257 1.0826 3.75018 2.49389 2.26182 4.63251C1.65973 5.49952 1.08654 6.7904 0.845706 7.81636C0.628954 8.77007 0.566337 10.2825 0.710838 11.2459C1.06246 13.6109 2.2859 15.735 4.13552 17.1897C5.03625 17.8977 5.49383 18.2879 6.01886 18.8129C7.00147 19.7955 7.65654 20.6385 8.52355 22.0546C9.22679 23.2009 9.30867 23.2732 9.88186 23.2732C10.4647 23.2732 10.5466 23.1961 11.2354 22.0594C11.5388 21.5488 11.9338 20.9178 12.112 20.6625C12.8682 19.5499 13.8845 18.5143 15.1417 17.5606C16.7842 16.3227 17.7716 15.0896 18.4556 13.4375C18.9228 12.3104 19.1348 11.1977 19.1348 9.91163C19.1299 8.73154 18.9999 7.91751 18.6386 6.8771C17.4923 3.55357 14.583 1.1982 11.0475 0.730978C10.3924 0.644276 9.2605 0.644276 8.6247 0.730978ZM11.1487 6.05345C12.4733 6.49658 13.4655 7.55626 13.8364 8.92421C13.9712 9.41551 13.9857 10.3451 13.8653 10.8413C13.5763 12.0165 12.7671 13.0377 11.6881 13.5772C11.5581 13.6446 11.2643 13.7602 11.0379 13.8373C10.6718 13.9577 10.5562 13.9673 9.93003 13.9721C9.18825 13.9769 8.92333 13.9288 8.33088 13.6928C6.47163 12.9413 5.43603 10.8702 5.93697 8.90012C6.51498 6.6459 8.9426 5.31649 11.1487 6.05345Z" fill="black" fill-opacity="0.3"/>
</svg>
