<svg width="33" height="33" viewBox="0 0 33 33" fill="none" xmlns="http://www.w3.org/2000/svg">
<path fill-rule="evenodd" clip-rule="evenodd" d="M18.429 29.6184V29.8237C20.0953 29.8237 21.7649 29.7729 23.4279 29.8413C24.6131 29.8899 25.6824 29.9241 26.1404 28.4994C26.201 28.3329 26.2951 28.1805 26.417 28.0518C26.5388 27.9231 26.6858 27.8208 26.8489 27.7512C28.3353 27.2811 28.311 26.1313 28.2261 24.9141C28.1913 24.4732 28.1942 24.0302 28.2349 23.5898C28.3143 22.8174 28.2062 22.2557 27.3278 21.9632C26.9908 21.8458 26.6868 21.6493 26.4413 21.3903C26.1957 21.1314 26.0158 20.8174 25.9164 20.4746C25.6659 19.6138 25.1296 19.4891 24.3428 19.4891C20.7011 19.4891 17.0595 19.4582 13.4179 19.3689C12.3938 19.3435 11.5275 19.3004 11.1413 20.532C11.0545 20.7866 10.9069 21.0163 10.7114 21.2011C10.5158 21.3859 10.2782 21.5202 10.019 21.5925C8.94308 21.8507 8.83604 22.579 8.88901 23.4839C8.92216 24.0135 8.90702 24.545 8.84376 25.0719C8.71355 26.107 8.78748 26.9479 9.97488 27.3816C10.2602 27.5112 10.5126 27.7038 10.7131 27.9447C10.9135 28.1857 11.0569 28.4689 11.1325 28.7731C11.3532 29.5213 11.831 29.6405 12.5108 29.6294C14.4828 29.5974 16.457 29.6184 18.429 29.6184ZM18.4367 32.1841C14.4872 32.1841 10.5377 32.2028 6.58926 32.1742C5.05316 32.1642 4.42967 31.5098 4.45174 29.9649C4.5014 26.3409 4.56871 22.7158 4.67244 19.093C4.73755 17.025 5.31249 16.5019 7.32421 16.5405C14.9131 16.6972 22.5065 16.9433 30.101 16.9047C31.9571 16.897 32.6391 17.6187 32.6214 19.4914C32.578 23.1161 32.5151 26.7404 32.4327 30.3644C32.3985 32.0042 31.828 32.5582 30.1561 32.5637C26.2497 32.578 22.3432 32.5637 18.4367 32.5637V32.1786" fill="#FEFEFE"/>
<path fill-rule="evenodd" clip-rule="evenodd" d="M26.4762 15.3198C21.9937 15.4357 17.733 14.0662 13.3752 13.3501C12.8605 13.2692 12.3509 13.1587 11.849 13.019C10.6804 12.6879 9.66513 12.529 8.87832 13.8654C8.33869 14.7824 7.13254 14.7317 6.19565 15.0153C4.05702 15.6597 3.29338 16.6209 3.23269 18.8633C3.19185 20.3883 3.09143 21.9134 3.0815 23.4396C3.0815 24.3356 2.62133 24.3566 2.00446 24.1017C1.56079 23.9626 1.18866 23.6563 0.966836 23.2477C0.745011 22.839 0.690904 22.3601 0.815967 21.9123C1.55901 18.2 2.31419 14.4889 3.0815 10.7788C3.39821 9.28909 4.2689 8.80023 5.93191 9.1346C9.2502 9.79671 12.5531 10.5195 15.8813 11.1651C20.014 11.9684 24.1577 12.7222 28.2948 13.4924C28.6426 13.515 28.9807 13.6168 29.2832 13.7898C29.5858 13.9629 29.8448 14.2027 30.0406 14.4911C30.3132 14.9623 30.3043 15.3276 29.5992 15.321C28.5564 15.311 27.5124 15.321 26.4685 15.321" fill="#FEFEFE"/>
<path fill-rule="evenodd" clip-rule="evenodd" d="M26.7213 10.9973C22.831 10.9959 19.0855 9.52177 16.2378 6.87125C15.5437 6.26541 14.8595 5.87035 13.9999 6.65717C13.8111 6.80788 13.5902 6.91307 13.3542 6.96455C13.1183 7.01603 12.8736 7.01243 12.6392 6.95401C11.7288 6.762 10.9839 6.73331 10.4796 7.73862C10.2501 8.19989 9.66744 7.94277 9.2801 7.84897C8.19534 7.57971 6.52129 7.81145 6.16265 7.02354C5.79517 6.21355 7.1812 5.23031 7.77489 4.30887C8.36859 3.38742 9.00422 2.52888 9.65089 1.66041C10.611 0.370388 11.4684 0.231344 12.8588 1.21127C16.3272 3.65006 19.7713 6.12416 23.232 8.57619C24.3542 9.37184 25.4931 10.1454 26.7235 11.0039" fill="#FEFEFE"/>
<path fill-rule="evenodd" clip-rule="evenodd" d="M15.6991 24.5165C15.6853 24.1234 15.7492 23.7314 15.8873 23.3631C16.0254 22.9948 16.2349 22.6574 16.5037 22.3703C16.7726 22.0832 17.0955 21.852 17.454 21.6901C17.8125 21.5281 18.1994 21.4386 18.5926 21.4266C18.9969 21.4108 19.4003 21.4761 19.7789 21.6187C20.1576 21.7613 20.5039 21.9782 20.7974 22.2567C21.091 22.5352 21.3257 22.8696 21.488 23.2403C21.6502 23.611 21.7366 24.0104 21.742 24.415C21.7475 25.2092 21.4484 25.9753 20.9063 26.5558C20.3642 27.1362 19.6203 27.4869 18.8276 27.5357C18.4235 27.5447 18.0216 27.4735 17.6451 27.3262C17.2687 27.179 16.9251 26.9587 16.6342 26.678C16.3434 26.3973 16.111 26.0618 15.9505 25.6908C15.79 25.3198 15.7046 24.9207 15.6991 24.5165Z" fill="#FEFEFE"/>
</svg>
