<svg width="36" height="37" viewBox="0 0 36 37" fill="none" xmlns="http://www.w3.org/2000/svg">
<path opacity="0.11" d="M22.9928 5.06738H8.11511C3.63326 5.06738 0 8.70064 0 13.1825V28.0602C0 32.5421 3.63326 36.1753 8.11511 36.1753H22.9928C27.4747 36.1753 31.1079 32.5421 31.1079 28.0602V13.1825C31.1079 8.70064 27.4747 5.06738 22.9928 5.06738Z" fill="#F91942"/>
<path d="M11.7949 19.5626L15.3399 16.0177C15.4834 15.874 15.6539 15.76 15.8415 15.6823C16.0292 15.6045 16.2303 15.5645 16.4334 15.5645C16.6365 15.5645 16.8376 15.6045 17.0252 15.6823C17.2129 15.76 17.3833 15.874 17.5269 16.0177L19.979 18.4698C20.1226 18.6135 20.2931 18.7274 20.4807 18.8052C20.6683 18.8829 20.8694 18.923 21.0725 18.923C21.2756 18.923 21.4767 18.8829 21.6644 18.8052C21.852 18.7274 22.0225 18.6135 22.166 18.4698L27.2556 13.3789M27.2556 13.3789V17.2444M27.2556 13.3789H23.3901" stroke="#F91942" stroke-width="2.02878" stroke-linecap="round" stroke-linejoin="round"/>
<path d="M34.9863 16.4704C34.9863 23.7578 34.9863 27.4028 32.7222 29.6669C30.4581 31.9311 26.8144 31.9311 19.5257 31.9311C12.237 31.9311 8.59329 31.9311 6.32917 29.6669C4.06505 27.4028 4.06641 23.7578 4.06641 16.4704C4.06641 9.18304 4.06641 5.538 6.33052 3.27388C8.59464 1.00977 12.2383 1.00977 19.5271 1.00977C26.8158 1.00977 30.4595 1.00977 32.7236 3.27388C34.2276 4.77924 34.7334 6.89458 34.9038 10.2853" stroke="#F91942" stroke-width="2.02878" stroke-linecap="round"/>
</svg>
