<svg width="19" height="19" viewBox="0 0 19 19" fill="none" xmlns="http://www.w3.org/2000/svg">
<path d="M8.23859 0.623995C6.54992 0.813059 5.02453 1.42751 3.59796 2.50603C3.15539 2.84118 2.33468 3.66189 1.99953 4.10446C1.11437 5.27751 0.517105 6.57517 0.250699 7.91579C-0.282113 10.5584 0.336637 13.2052 1.99953 15.4052C2.14562 15.5943 2.48507 15.9724 2.76007 16.2431C5.22218 18.7095 8.81437 19.5646 12.1359 18.4775C12.6128 18.3185 13.5323 17.9017 13.9405 17.6568L14.0952 17.5623L16.1105 18.1037C17.2148 18.4002 18.1257 18.6365 18.13 18.6322C18.1343 18.6279 18.0569 18.3142 17.9538 17.9404C17.8507 17.5623 17.6058 16.6642 17.4124 15.9424L17.0601 14.6275L17.3823 14.0088C17.8851 13.0377 18.1601 12.1955 18.3448 11.0654C18.4566 10.3693 18.448 9.05446 18.3234 8.33689C17.9796 6.30876 17.1417 4.66735 15.7409 3.26228C14.9761 2.49743 14.2757 1.99899 13.2788 1.50485C11.7362 0.740011 9.97882 0.434933 8.23859 0.623995ZM9.84132 5.06696C10.43 5.44079 10.546 6.21853 10.0905 6.73415C9.62218 7.26696 8.87023 7.26267 8.40187 6.73415C7.98937 6.2615 8.05382 5.55251 8.55226 5.13571C8.7714 4.95525 8.96906 4.89509 9.3214 4.91228C9.57922 4.92517 9.66515 4.95095 9.84132 5.06696ZM10.3655 10.3564V12.9345H10.7952H11.2249V13.7724V14.6103H9.24836H7.27179V13.7724V12.9345H7.70148H8.13117V11.1943V9.45407H7.70148H7.27179V8.61618V7.77829H8.81867H10.3655V10.3564Z" fill="black"/>
</svg>
