<svg width="17" height="17" viewBox="0 0 17 17" fill="none" xmlns="http://www.w3.org/2000/svg">
<path d="M16.4039 6.0751C16.3323 6.50053 16.2583 6.92455 16.1159 7.33482C15.836 8.14127 15.3859 8.8381 14.7871 9.44083C14.0388 10.1941 13.2877 10.9445 12.5345 11.6928C11.9427 12.2807 11.2448 12.6701 10.4112 12.7875C9.43802 12.9246 8.57024 12.6694 7.81808 12.0424C7.18821 11.5172 6.78851 10.8475 6.67044 10.0319C6.53227 9.07461 6.80402 8.21811 7.36586 7.44409C7.59919 7.12299 7.88822 6.853 8.16667 6.57349C8.47543 6.26367 8.78137 5.95068 9.09578 5.6465C9.36683 5.38426 9.68757 5.21684 10.0749 5.26442C10.542 5.32152 10.8514 5.60913 11.0252 6.02751C11.1916 6.42827 11.0488 6.79061 10.7714 7.08598C10.3407 7.54489 9.88531 7.98055 9.44261 8.42783C9.25862 8.61393 9.08274 8.80709 8.96889 9.04782C8.76234 9.48594 8.8205 9.90115 9.13948 10.248C9.44825 10.5839 9.91421 10.696 10.34 10.5384C10.5377 10.4655 10.7178 10.3629 10.8673 10.2138C11.691 9.39289 12.5366 8.59243 13.33 7.74333C14.5925 6.39162 14.473 4.3265 13.0981 3.08792C12.0463 2.14049 10.6544 1.93077 9.41229 2.53525C9.10283 2.68576 8.82578 2.8849 8.58258 3.1281C6.77089 4.93803 4.95109 6.73985 3.1528 8.56318C2.07318 9.65759 1.9047 11.2405 2.70269 12.5549C3.23668 13.4343 4.03256 13.9327 5.0526 14.0687C5.80195 14.1685 6.53086 14.0955 7.23298 13.8026C7.42684 13.7219 7.63021 13.6807 7.84134 13.6881C8.37815 13.7071 8.85433 14.1992 8.85892 14.7342C8.86174 15.0426 8.70841 15.2731 8.492 15.468C8.09265 15.8276 7.60095 16.013 7.09869 16.1596C5.58307 16.6019 4.12068 16.4518 2.7686 15.6323C1.27273 14.7257 0.330928 13.4082 0.0665764 11.655C-0.170988 10.0781 0.231179 8.66328 1.20963 7.41096C1.35697 7.22238 1.52368 7.04756 1.69287 6.87767C3.42666 5.1407 5.16293 3.4062 6.89778 1.67029C7.7437 0.824014 8.7426 0.268171 9.92796 0.0619764C10.0696 0.0373035 10.2113 0.0154505 10.3534 -0.0078125C10.6949 -0.0078125 11.0365 -0.0078125 11.3777 -0.0078125C11.4083 -5.81811e-05 11.4386 0.0108684 11.47 0.0143931C12.4929 0.137405 13.4195 0.50221 14.2281 1.143C15.0627 1.80423 15.6975 2.61667 16.0736 3.62403C16.2389 4.06638 16.3221 4.52529 16.4039 4.98632C16.4039 5.34936 16.4039 5.71206 16.4039 6.0751Z" fill="#0A0B18"/>
</svg>
