<svg width="19" height="19" viewBox="0 0 19 19" fill="none" xmlns="http://www.w3.org/2000/svg">
<path d="M9.53295 15.8974C7.69777 15.8974 5.86258 15.8974 4.02739 15.8974C3.53356 15.8974 3.0464 15.8634 2.81283 15.3268C2.57926 14.7766 2.82618 14.3418 3.2466 14.0294C4.00737 13.4588 4.24094 12.7319 4.17421 11.7742C4.09413 10.5718 4.11415 9.34912 4.16753 8.14C4.25429 6.21764 4.98836 4.61453 6.60333 3.5073C6.94367 3.26955 7.31738 3.07936 7.71779 2.98426C8.08482 2.89595 8.17825 2.69896 8.16491 2.33894C8.14488 1.55777 8.57866 1.01434 9.28604 0.885277C10.0735 0.735835 10.8476 1.36757 10.8743 2.1827C10.881 2.29818 10.8877 2.40687 10.8743 2.52235C10.8476 2.7533 10.9477 2.86199 11.1679 2.92991C13.1833 3.59561 14.2911 5.06286 14.7449 7.11429C14.865 7.66451 14.8784 8.21472 14.8784 8.76494C14.8784 10.0895 14.885 11.4141 14.8717 12.7387C14.8717 12.9833 14.9317 13.1735 15.1119 13.3365C15.3922 13.5946 15.6458 13.8799 15.9127 14.1516C16.2331 14.4709 16.3865 14.8377 16.213 15.286C16.0329 15.748 15.6525 15.8974 15.192 15.8974C14.0775 15.8974 12.9698 15.8974 11.8553 15.8974C11.0945 15.8974 10.3137 15.8974 9.53295 15.8974Z" fill="black"/>
<path d="M1.65841 8.16741C1.07115 8.17421 0.624033 7.69192 0.717461 7.10773C1.0578 4.92045 2.0388 3.0728 3.64709 1.57838C4.04082 1.21157 4.6214 1.25233 4.96175 1.63273C5.30209 2.01312 5.28875 2.54976 4.88834 2.93695C3.91402 3.90153 3.18662 5.01555 2.79956 6.35373C2.69279 6.71375 2.63273 7.08056 2.5393 7.44058C2.42585 7.88891 2.09218 8.16062 1.65841 8.16741Z" fill="black"/>
<path d="M14.8115 1.32647C15.0584 1.31968 15.2653 1.42837 15.4388 1.59139C17.007 3.07902 17.9613 4.89949 18.315 7.04602C18.4018 7.56907 18.0814 8.04457 17.5943 8.13966C17.0737 8.24156 16.6066 7.94267 16.5065 7.39246C16.1929 5.62632 15.4054 4.13191 14.1374 2.89561C13.8438 2.61031 13.7704 2.25709 13.9306 1.8699C14.0774 1.53026 14.4177 1.31968 14.8115 1.32647Z" fill="black"/>
<path d="M9.52559 16.6995C10.0128 16.6995 10.4999 16.7063 10.9871 16.6995C11.2807 16.6927 11.3474 16.8082 11.294 17.0935C11.1339 17.9562 10.3598 18.6219 9.4989 18.6083C8.61801 18.5947 7.87059 17.9426 7.7171 17.0731C7.67039 16.8014 7.75714 16.6995 8.02408 16.6995C8.53126 16.6995 9.03176 16.6995 9.52559 16.6995Z" fill="black"/>
</svg>
