<svg width="27" height="24" viewBox="0 0 27 24" fill="none" xmlns="http://www.w3.org/2000/svg">
<path fill-rule="evenodd" clip-rule="evenodd" d="M14.2276 0.218282C14.2241 0.218259 14.2207 0.218256 14.2173 0.218271C13.6393 0.220805 13.078 0.405593 12.6185 0.744645L12.6184 0.744748C12.1613 1.08193 11.8298 1.55333 11.6733 2.08818L9.46793 9.19521C8.61535 7.75785 7.01332 6.78969 5.17757 6.78969C2.44752 6.78969 0.234375 8.93091 0.234375 11.5722V18.4357C0.234375 21.077 2.44752 23.2183 5.17757 23.2183C6.89102 23.2183 8.40085 22.3748 9.28771 21.0936C9.42718 21.276 9.58018 21.449 9.74572 21.6111L9.74581 21.6112C10.2027 22.0585 10.7463 22.4146 11.3457 22.6587C11.9448 22.9029 12.5877 23.0305 13.2379 23.0342C13.2397 23.0342 13.2415 23.0343 13.2433 23.0343H18.2188C19.5747 23.0333 20.8939 22.6068 21.9781 21.8189C23.0617 21.0313 23.8523 19.925 24.2312 18.6661L24.2317 18.6644L26.0356 12.7536C26.2212 12.2342 26.2778 11.68 26.2013 11.1355L26.2012 11.1353C26.1233 10.5825 25.9102 10.0558 25.5797 9.59888L25.5796 9.59872C25.2489 9.14174 24.8102 8.7676 24.3 8.5076C23.7897 8.2476 23.2227 8.1093 22.6462 8.104C22.6434 8.10398 22.6405 8.10397 22.6376 8.10397H16.8779V2.81444C16.8798 2.4764 16.8131 2.14153 16.6818 1.82866L16.6817 1.82827C16.5498 1.51447 16.3555 1.22859 16.1092 0.987112C15.8632 0.745692 15.5704 0.55349 15.2474 0.421555L15.2472 0.421502C14.9244 0.289603 14.5778 0.220598 14.2276 0.218282ZM13.7168 2.1381C13.8616 2.03127 14.0382 1.97254 14.2203 1.97067L12.29 10.6803L10.3597 19.39C10.2042 19.0205 10.1254 18.6251 10.1279 18.2263C10.1279 18.2245 10.1279 18.2228 10.1279 18.221V13.1627L13.4103 2.58474C13.412 2.57929 13.4137 2.57382 13.4152 2.56834C13.4646 2.39706 13.5704 2.24606 13.7167 2.1382L13.7168 2.1381ZM14.2203 1.97067L10.3597 19.3901C10.5152 19.7594 10.7444 20.0956 11.0341 20.3794C11.324 20.6632 11.6686 20.8889 12.0485 21.0436L12.0487 21.0437C12.4279 21.1983 12.8347 21.2792 13.2461 21.2819H18.2175C19.1815 21.2812 20.1194 20.978 20.8902 20.4178C21.661 19.8575 22.2233 19.0705 22.4925 18.1749L22.4936 18.1715L24.3048 12.2368C24.3093 12.222 24.3142 12.2074 24.3195 12.1928C24.4156 11.93 24.4454 11.6486 24.4066 11.3721C24.3676 11.0956 24.261 10.8321 24.0957 10.6035C23.9303 10.3751 23.711 10.188 23.456 10.0581C23.2021 9.92872 22.9199 9.85958 22.6329 9.85635H15.9722C15.4721 9.85635 15.0666 9.46406 15.0666 8.98016V2.81176C15.0666 2.81032 15.0666 2.80889 15.0666 2.80745L15.0666 2.80582C15.0674 2.69711 15.046 2.58917 15.0037 2.48809L15.0036 2.48791C14.9611 2.38684 14.8987 2.29508 14.8198 2.21773L14.8195 2.21747C14.7405 2.13997 14.6465 2.07828 14.5428 2.03594L14.5427 2.03588C14.4407 1.99421 14.3312 1.97205 14.2203 1.97067ZM2.04562 11.5722C2.04562 9.89872 3.44784 8.54207 5.17757 8.54207C6.90729 8.54207 8.30951 9.89872 8.30951 11.5722V18.4357C8.30951 20.1092 6.90729 21.4659 5.17757 21.4659C3.44784 21.4659 2.04562 20.1092 2.04562 18.4357V11.5722Z" fill="black" fill-opacity="0.4"/>
</svg>
