<svg width="24" height="24" viewBox="0 0 24 24" fill="none" xmlns="http://www.w3.org/2000/svg">
<path fill-rule="evenodd" clip-rule="evenodd" d="M11.7344 2.51826C6.65335 2.51826 2.53438 6.63725 2.53438 11.7183C2.53438 13.1895 2.87883 14.5768 3.49047 15.8073C3.82648 16.4833 3.80956 17.3104 3.73838 17.9531C3.66119 18.65 3.48563 19.3926 3.29791 20.0506C3.21121 20.3545 3.11985 20.6474 3.03061 20.9183H11.7344C16.8154 20.9183 20.9344 16.7993 20.9344 11.7183C20.9344 6.63725 16.8154 2.51826 11.7344 2.51826ZM0.323587 21.6262L0.326864 21.6182C0.328111 21.6152 0.32969 21.6113 0.331588 21.6067C0.333864 21.6011 0.336598 21.5944 0.339771 21.5866C0.351413 21.558 0.368935 21.5145 0.391299 21.4579C0.436063 21.3446 0.500029 21.1793 0.574955 20.9757C0.725436 20.5669 0.917108 20.0121 1.08616 19.4196C1.25701 18.8207 1.39517 18.2163 1.45236 17.6999C1.48084 17.4427 1.48638 17.2317 1.47387 17.0687C1.46772 16.9887 1.45787 16.9291 1.44789 16.887C1.43849 16.8474 1.43076 16.8309 1.43077 16.8309L1.43087 16.8311C0.664674 15.2896 0.234375 13.5526 0.234375 11.7183C0.234375 5.36699 5.38309 0.218262 11.7344 0.218262C18.0857 0.218262 23.2344 5.367 23.2344 11.7183C23.2344 18.0696 18.0857 23.2183 11.7344 23.2183H1.3853C1.38523 23.2183 1.3852 23.2183 1.3852 22.0683V23.2183C1.00073 23.2183 0.641695 23.0261 0.428401 22.7063C0.215151 22.3864 0.175792 21.9812 0.323495 21.6264L0.323587 21.6262ZM5.97988 11.7183C5.97988 11.0831 6.49475 10.5683 7.12988 10.5683H7.14138C7.77651 10.5683 8.29138 11.0831 8.29138 11.7183C8.29138 12.3534 7.77651 12.8683 7.14138 12.8683H7.12988C6.49475 12.8683 5.97988 12.3534 5.97988 11.7183ZM10.5799 11.7183C10.5799 11.0831 11.0948 10.5683 11.7299 10.5683H11.7414C12.3765 10.5683 12.8914 11.0831 12.8914 11.7183C12.8914 12.3534 12.3765 12.8683 11.7414 12.8683H11.7299C11.0948 12.8683 10.5799 12.3534 10.5799 11.7183ZM15.1799 11.7183C15.1799 11.0831 15.6948 10.5683 16.3299 10.5683H16.3414C16.9765 10.5683 17.4914 11.0831 17.4914 11.7183C17.4914 12.3534 16.9765 12.8683 16.3414 12.8683H16.3299C15.6948 12.8683 15.1799 12.3534 15.1799 11.7183Z" fill="black" fill-opacity="0.4"/>
</svg>
