<svg width="22" height="20" viewBox="0 0 22 20" fill="none" xmlns="http://www.w3.org/2000/svg">
<path d="M11.7319 0.501413L14.7283 6.2629L21.4266 7.18702C21.6 7.2114 21.7438 7.32659 21.7978 7.48434C21.8519 7.64209 21.8067 7.81516 21.6814 7.93106L16.8354 12.4148L17.9795 18.7471C18.0096 18.9104 17.9389 19.0757 17.7973 19.1733C17.6556 19.2709 17.4676 19.2838 17.3125 19.2066L11.321 16.2175L5.3295 19.2075C5.17451 19.2849 4.98641 19.2722 4.84465 19.1747C4.70289 19.0771 4.63221 18.9118 4.66246 18.7484L5.80661 12.4148L0.959266 7.93106C0.833897 7.81516 0.788767 7.64209 0.84278 7.48434C0.896793 7.32659 1.04062 7.2114 1.21403 7.18702L7.91229 6.2629L10.9101 0.501413C10.9864 0.352435 11.146 0.257813 11.321 0.257812C11.496 0.257812 11.6556 0.352435 11.7319 0.501413Z" fill="black"/>
</svg>
