<svg width="19" height="19" viewBox="0 0 19 19" fill="none" xmlns="http://www.w3.org/2000/svg">
<path d="M8.31476 0.623995C6.62609 0.813059 5.1007 1.42751 3.67414 2.50603C3.23156 2.84118 2.41086 3.66189 2.0757 4.10446C1.19054 5.27751 0.593277 6.57517 0.326871 7.91579C-0.205942 10.5584 0.412808 13.2052 2.0757 15.4052C2.22179 15.5943 2.56125 15.9724 2.83625 16.2431C5.29836 18.7095 8.89054 19.5646 12.212 18.4775C12.689 18.3185 13.6085 17.9017 14.0167 17.6568L14.1714 17.5623L16.1866 18.1037C17.2909 18.4002 18.2019 18.6365 18.2062 18.6322C18.2105 18.6279 18.1331 18.3142 18.03 17.9404C17.9269 17.5623 17.6819 16.6642 17.4886 15.9424L17.1362 14.6275L17.4585 14.0088C17.9612 13.0377 18.2362 12.1955 18.421 11.0654C18.5327 10.3693 18.5241 9.05446 18.3995 8.33689C18.0558 6.30876 17.2179 4.66735 15.8171 3.26228C15.0523 2.49743 14.3519 1.99899 13.355 1.50485C11.8124 0.740011 10.055 0.434933 8.31476 0.623995ZM9.9175 5.06696C10.5062 5.44079 10.6222 6.21853 10.1667 6.73415C9.69836 7.26696 8.9464 7.26267 8.47804 6.73415C8.06554 6.2615 8.13 5.55251 8.62843 5.13571C8.84757 4.95525 9.04523 4.89509 9.39757 4.91228C9.65539 4.92517 9.74132 4.95095 9.9175 5.06696ZM10.4417 10.3564V12.9345H10.8714H11.3011V13.7724V14.6103H9.32453H7.34796V13.7724V12.9345H7.77765H8.20734V11.1943V9.45407H7.77765H7.34796V8.61618V7.77829H8.89484H10.4417V10.3564Z" fill="black"/>
</svg>
