<svg width="19" height="20" viewBox="0 0 19 20" fill="none" xmlns="http://www.w3.org/2000/svg">
<path d="M9.41085 8.80478C12.423 8.80478 15.4346 8.80478 18.4468 8.80478C18.7842 8.80478 18.7854 8.80537 18.7854 9.14563C18.7854 11.5012 18.7883 13.8568 18.7842 16.2124C18.7819 17.6587 17.8614 18.8015 16.4776 19.0816C16.2862 19.1207 16.0872 19.1411 15.8916 19.1411C11.5744 19.1446 7.25662 19.1464 2.9394 19.1423C1.52698 19.1411 0.389452 18.2131 0.104633 16.8468C0.0614432 16.6402 0.0410156 16.4295 0.0410156 16.2171C0.0415993 13.8539 0.0410156 11.4913 0.0415993 9.12812C0.0415993 8.80537 0.0427665 8.8042 0.37486 8.8042C3.38647 8.80478 6.39866 8.80478 9.41085 8.80478Z" fill="black" fill-opacity="0.3"/>
<path d="M9.3897 6.79988C6.38451 6.79988 3.37932 6.79988 0.374134 6.79988C0.0414565 6.79988 0.0414565 6.79929 0.0402892 6.45845C0.0391219 6.01371 0.0239472 5.56839 0.143011 5.13299C0.48561 3.88165 1.57411 3.03887 2.88147 3.01611C3.11493 3.01202 3.34839 3.00852 3.58185 3.01728C3.74293 3.02311 3.79896 2.96125 3.79721 2.80016C3.79021 2.26788 3.79254 1.73501 3.79546 1.20272C3.79779 0.648262 4.20226 0.225119 4.72929 0.218699C5.26158 0.212279 5.69406 0.641841 5.70106 1.19689C5.70806 1.72217 5.70806 2.24745 5.69989 2.77214C5.69697 2.94665 5.74542 3.01844 5.93277 3.01844C8.25217 3.01377 10.5716 3.01377 12.8916 3.01844C13.0795 3.01903 13.1268 2.94607 13.1244 2.77214C13.1168 2.23227 13.1133 1.6924 13.1256 1.15311C13.1367 0.66402 13.5038 0.289904 14.0092 0.225703C14.4336 0.172007 14.876 0.483674 15.0014 0.921991C15.03 1.02238 15.0306 1.12335 15.0306 1.22549C15.0312 1.75077 15.0359 2.27605 15.0283 2.80074C15.026 2.963 15.0843 3.01903 15.2442 3.01728C15.6522 3.01319 16.0619 2.99101 16.4658 3.07214C17.8152 3.34178 18.7549 4.46763 18.7835 5.84737C18.7881 6.07324 18.7747 6.30028 18.7875 6.52556C18.7992 6.73101 18.7303 6.80863 18.515 6.80396C17.9389 6.79112 17.3629 6.79988 16.7862 6.79988C14.3203 6.79988 11.855 6.79988 9.3897 6.79988Z" fill="black" fill-opacity="0.3"/>
</svg>
