<svg width="48" height="42" viewBox="0 0 48 42" fill="none" xmlns="http://www.w3.org/2000/svg">
<path d="M21.3264 0.123714C17.4711 0.753803 14.2673 2.43048 11.5654 5.23917C9.36539 7.5139 7.9557 10.141 7.19746 13.3662C6.90912 14.573 6.89844 14.7866 6.89844 17.0506C6.89844 19.3147 6.90912 19.5283 7.19746 20.7351C7.99842 24.1632 9.39743 26.6835 11.843 29.1291C14.3527 31.6281 17.0012 33.0698 20.5361 33.8388C21.4759 34.0417 21.9458 34.0737 23.9749 34.0737C26.1749 34.0737 26.4098 34.0523 27.6059 33.7747C31.0233 32.9737 33.5544 31.5747 36 29.1291C38.4883 26.6301 39.9514 23.9603 40.7096 20.4681C40.9125 19.4962 40.9445 19.0477 40.9445 17.0506C40.9445 15.0536 40.9125 14.6051 40.7096 13.6332C39.9514 10.141 38.4883 7.47118 36 4.97219C33.5437 2.52659 30.9806 1.10622 27.6059 0.337303C26.5059 0.0809975 26.0467 0.0382767 24.2953 0.00624084C22.8856 -0.0151176 21.9778 0.0169182 21.3264 0.123714ZM17.9517 21.6749C18.1546 21.8137 18.5604 22.102 18.8594 22.3156C20.3012 23.3515 22.0205 23.8855 23.9215 23.8855C25.8224 23.8855 27.5418 23.3515 28.9835 22.3156C30.1583 21.4719 30.2437 21.4292 30.7457 21.4292C32.0165 21.4292 32.8175 22.8603 32.1233 23.8855C31.568 24.6971 29.3787 26.0534 27.7234 26.6088C26.4312 27.0359 25.3846 27.2068 23.9215 27.2068C21.273 27.2068 18.7633 26.3738 16.6915 24.7933C15.7624 24.0884 15.4847 23.6826 15.4847 23.0418C15.4847 21.7603 16.9158 20.97 17.9517 21.6749Z" fill="white"/>
<path d="M3.50286 9.5643C1.95434 10.0662 0.630088 11.4225 0.170871 12.9817C0.0320384 13.4623 0 14.1885 0 17.0613C0 20.1904 0.0213589 20.6282 0.20291 21.2049C0.694165 22.7748 2.03978 24.1097 3.62034 24.5689C4.01547 24.6864 4.63488 24.7398 5.52128 24.7398C6.24748 24.7398 6.83485 24.7184 6.83485 24.6971C6.83485 24.6757 6.69602 24.334 6.53583 23.9282C6.13001 22.9563 5.83098 21.9418 5.54264 20.5748C5.32905 19.5923 5.29701 19.1438 5.29701 17.0506C5.29701 14.9574 5.32905 14.5089 5.54264 13.5264C5.83098 12.1594 6.13001 11.1449 6.53583 10.173C6.69602 9.76721 6.83485 9.42547 6.83485 9.40411C6.83485 9.38275 6.22612 9.36139 5.47856 9.37207C4.46401 9.37207 3.9514 9.42547 3.50286 9.5643Z" fill="white"/>
<path d="M41.0575 9.54293C41.7196 11.1235 42.3176 13.2807 42.4992 14.8079C42.5526 15.2992 42.606 16.3137 42.606 17.0506C42.606 17.7875 42.5526 18.802 42.4992 19.2933C42.3497 20.5214 41.8264 22.5825 41.3778 23.7359C41.1749 24.2592 41.0041 24.6971 41.0041 24.7078C41.0041 24.7291 41.6341 24.7398 42.3924 24.7398C43.1613 24.7398 43.7807 24.7612 43.7807 24.7718C43.7807 24.7932 43.6846 25.1243 43.5564 25.498C42.3176 29.2786 39.6798 32.4504 35.8245 34.7785C33.1119 36.4124 30.1431 37.3202 26.6829 37.5658C24.8674 37.6833 24.5684 37.7901 24.1626 38.4095C23.8208 38.9008 23.8208 39.8405 24.1626 40.3318C24.6004 40.9939 24.9422 41.1114 26.3518 41.09C31.0828 41.026 35.9847 39.2852 39.9361 36.295C41.0468 35.4406 42.937 33.6037 43.738 32.5892C45.8205 29.9087 47.1661 26.7689 47.6787 23.3728C47.7962 22.5932 47.8389 21.2583 47.8389 17.937C47.8389 13.9215 47.8175 13.4943 47.636 12.8963C47.1447 11.3264 45.7991 9.99147 44.2186 9.53225C43.8234 9.41478 43.204 9.36138 42.3069 9.36138C41.0895 9.36138 40.9827 9.37206 41.0575 9.54293Z" fill="white"/>
<path d="M16.9955 37.7687C16.4829 38.0891 16.2266 38.5697 16.2266 39.2639C16.2266 39.958 16.4829 40.4386 16.9955 40.759C17.3159 40.9512 17.5401 40.9726 19.2168 40.9726C20.8935 40.9726 21.1178 40.9512 21.4381 40.759C21.9508 40.4386 22.2071 39.958 22.2071 39.2639C22.2071 38.5697 21.9508 38.0891 21.4381 37.7687C21.1178 37.5765 20.8935 37.5551 19.2168 37.5551C17.5401 37.5551 17.3159 37.5765 16.9955 37.7687Z" fill="white"/>
</svg>
