<svg width="36" height="37" viewBox="0 0 36 37" fill="none" xmlns="http://www.w3.org/2000/svg">
<path opacity="0.13" fill-rule="evenodd" clip-rule="evenodd" d="M8.69961 6.7649C9.12835 6.96283 9.59255 7.07237 10.0645 7.08698C10.5365 7.1016 11.0066 7.021 11.4468 6.84998C11.8869 6.67897 12.2882 6.42104 12.6265 6.0916C12.9648 5.76216 13.2333 5.36794 13.4159 4.93248C13.6825 4.29334 14.1323 3.74738 14.7086 3.36335C15.2849 2.97933 15.9619 2.77441 16.6544 2.77441C17.347 2.77441 18.024 2.97933 18.6003 3.36335C19.1766 3.74738 19.6263 4.29334 19.893 4.93248C20.0756 5.36794 20.3441 5.76216 20.6824 6.0916C21.0207 6.42104 21.4219 6.67897 21.8621 6.84998C22.3022 7.021 22.7723 7.1016 23.2443 7.08698C23.7163 7.07237 24.1805 6.96283 24.6093 6.7649C25.2683 6.46275 26.0041 6.36952 26.7176 6.49773C27.4312 6.62593 28.0885 6.96944 28.6012 7.48211C29.1138 7.99477 29.4573 8.65204 29.5856 9.36564C29.7138 10.0792 29.6205 10.815 29.3184 11.474C29.1205 11.9028 29.0109 12.367 28.9963 12.839C28.9817 13.3109 29.0623 13.781 29.2333 14.2212C29.4043 14.6614 29.6622 15.0626 29.9917 15.4009C30.3211 15.7392 30.7153 16.0077 31.1508 16.1903C31.7899 16.4569 32.3359 16.9067 32.7199 17.483C33.104 18.0593 33.3089 18.7363 33.3089 19.4288C33.3089 20.1214 33.104 20.7984 32.7199 21.3747C32.3359 21.951 31.7899 22.4008 31.1508 22.6674C30.7153 22.85 30.3211 23.1185 29.9917 23.4568C29.6622 23.7951 29.4043 24.1963 29.2333 24.6365C29.0623 25.0767 28.9817 25.5467 28.9963 26.0187C29.0109 26.4907 29.1205 26.9549 29.3184 27.3837C29.6205 28.0427 29.7138 28.7785 29.5856 29.4921C29.4573 30.2057 29.1138 30.8629 28.6012 31.3756C28.0885 31.8883 27.4312 32.2318 26.7176 32.36C26.0041 32.4882 25.2683 32.3949 24.6093 32.0928C24.1805 31.8949 23.7163 31.7853 23.2443 31.7707C22.7723 31.7561 22.3022 31.8367 21.8621 32.0077C21.4219 32.1787 21.0207 32.4367 20.6824 32.7661C20.3441 33.0955 20.0756 33.4898 19.893 33.9252C19.6263 34.5644 19.1766 35.1103 18.6003 35.4943C18.024 35.8784 17.347 36.0833 16.6544 36.0833C15.9619 36.0833 15.2849 35.8784 14.7086 35.4943C14.1323 35.1103 13.6825 34.5644 13.4159 33.9252C13.2333 33.4898 12.9648 33.0955 12.6265 32.7661C12.2882 32.4367 11.8869 32.1787 11.4468 32.0077C11.0066 31.8367 10.5365 31.7561 10.0645 31.7707C9.59255 31.7853 9.12835 31.8949 8.69961 32.0928C8.04055 32.3949 7.30482 32.4882 6.59122 32.36C5.87763 32.2318 5.22036 31.8883 4.70769 31.3756C4.19503 30.8629 3.85152 30.2057 3.72331 29.4921C3.59511 28.7785 3.68834 28.0427 3.99049 27.3837C4.18841 26.9549 4.29795 26.4907 4.31257 26.0187C4.32719 25.5467 4.24658 25.0767 4.07557 24.6365C3.90455 24.1963 3.64663 23.7951 3.31719 23.4568C2.98774 23.1185 2.59353 22.85 2.15807 22.6674C1.51892 22.4008 0.972963 21.951 0.588939 21.3747C0.204915 20.7984 0 20.1214 0 19.4288C0 18.7363 0.204915 18.0593 0.588939 17.483C0.972963 16.9067 1.51892 16.4569 2.15807 16.1903C2.59353 16.0077 2.98774 15.7392 3.31719 15.4009C3.64663 15.0626 3.90455 14.6614 4.07557 14.2212C4.24658 13.781 4.32719 13.3109 4.31257 12.839C4.29795 12.367 4.18841 11.9028 3.99049 11.474C3.68834 10.815 3.59511 10.0792 3.72331 9.36564C3.85152 8.65204 4.19503 7.99477 4.70769 7.48211C5.22036 6.96944 5.87763 6.62593 6.59122 6.49773C7.30482 6.36952 8.04055 6.46275 8.69961 6.7649ZM16.6544 13.3924C15.4616 13.3924 14.2956 13.7461 13.3038 14.4088C12.312 15.0715 11.5389 16.0135 11.0825 17.1155C10.626 18.2175 10.5066 19.4302 10.7393 20.6001C10.972 21.77 11.5464 22.8446 12.3898 23.6881C13.2333 24.5315 14.3079 25.1059 15.4778 25.3386C16.6477 25.5713 17.8604 25.4519 18.9624 24.9954C20.0644 24.539 21.0064 23.7659 21.6691 22.7741C22.3318 21.7823 22.6855 20.6163 22.6855 19.4235C22.6841 17.8249 22.048 16.2922 20.9171 15.1624C19.7862 14.0325 18.253 13.3978 16.6544 13.3978V13.3924Z" fill="#F91942"/>
<path d="M15.8996 3.06643C15.7234 3.48693 15.4642 3.8676 15.1376 4.1857C14.811 4.50379 14.4236 4.75279 13.9986 4.91781C13.5736 5.08284 13.1197 5.1605 12.6639 5.14616C12.2082 5.13183 11.7601 5.02578 11.3463 4.83437C10.7101 4.54229 9.99965 4.45199 9.31056 4.57561C8.62147 4.69923 7.98675 5.03085 7.49171 5.52589C6.99667 6.02093 6.66505 6.65565 6.54143 7.34474C6.41781 8.03383 6.50811 8.74424 6.80019 9.38049C6.9916 9.79429 7.09765 10.2424 7.11198 10.6981C7.12632 11.1538 7.04866 11.6077 6.88363 12.0328C6.71861 12.4578 6.46961 12.8452 6.15152 13.1718C5.83342 13.4984 5.45275 13.7576 5.03225 13.9338C4.41488 14.1906 3.8874 14.6246 3.51634 15.1808C3.14528 15.7371 2.94727 16.3908 2.94727 17.0595C2.94727 17.7281 3.14528 18.3818 3.51634 18.9381C3.8874 19.4944 4.41488 19.9283 5.03225 20.1851C5.45275 20.3614 5.83342 20.6205 6.15152 20.9471C6.46961 21.2738 6.71861 21.6612 6.88363 22.0862C7.04866 22.5112 7.12632 22.9651 7.11198 23.4208C7.09765 23.8765 6.9916 24.3246 6.80019 24.7384C6.50811 25.3747 6.41781 26.0851 6.54143 26.7742C6.66505 27.4633 6.99667 28.098 7.49171 28.593C7.98675 29.0881 8.62147 29.4197 9.31056 29.5433C9.99965 29.6669 10.7101 29.5766 11.3463 29.2846C11.7603 29.0947 12.2083 28.9898 12.6636 28.9763C13.1189 28.9627 13.5723 29.0406 13.9969 29.2055C14.4215 29.3704 14.8087 29.6188 15.1355 29.9361C15.4624 30.2533 15.7222 30.633 15.8996 31.0525C16.1565 31.6699 16.5904 32.1974 17.1467 32.5684C17.7029 32.9395 18.3566 33.1375 19.0253 33.1375C19.694 33.1375 20.3477 32.9395 20.9039 32.5684C21.4602 32.1974 21.8941 31.6699 22.151 31.0525C22.3272 30.632 22.5863 30.2513 22.913 29.9332C23.2396 29.6151 23.627 29.3661 24.052 29.2011C24.477 29.0361 24.9309 28.9584 25.3866 28.9728C25.8423 28.9871 26.2905 29.0931 26.7043 29.2846C27.3405 29.5766 28.0509 29.6669 28.74 29.5433C29.4291 29.4197 30.0638 29.0881 30.5589 28.593C31.0539 28.098 31.3855 27.4633 31.5091 26.7742C31.6328 26.0851 31.5425 25.3747 31.2504 24.7384C31.059 24.3246 30.9529 23.8765 30.9386 23.4208C30.9243 22.9651 31.0019 22.5112 31.1669 22.0862C31.332 21.6612 31.581 21.2738 31.8991 20.9471C32.2172 20.6205 32.5978 20.3614 33.0183 20.1851C33.6357 19.9283 34.1632 19.4944 34.5342 18.9381C34.9053 18.3818 35.1033 17.7281 35.1033 17.0595C35.1033 16.3908 34.9053 15.7371 34.5342 15.1808C34.1632 14.6246 33.6357 14.1906 33.0183 13.9338C32.5988 13.7564 32.2191 13.4965 31.9019 13.1697C31.5846 12.8429 31.3362 12.4557 31.1713 12.0311C31.0065 11.6064 30.9285 11.1531 30.9421 10.6978C30.9557 10.2425 31.0605 9.79452 31.2504 9.38049C31.5425 8.74424 31.6328 8.03383 31.5091 7.34474C31.3855 6.65565 31.0539 6.02093 30.5589 5.52589C30.0638 5.03085 29.4291 4.69923 28.74 4.57561C28.0509 4.45199 27.3405 4.54229 26.7043 4.83437C26.2905 5.02578 25.8423 5.13183 25.3866 5.14616C24.9309 5.1605 24.477 5.08284 24.052 4.91781C23.627 4.75279 23.2396 4.50379 22.913 4.1857C22.5863 3.8676 22.3272 3.48693 22.151 3.06643C21.8941 2.44906 21.4602 1.92158 20.9039 1.55052C20.3477 1.17946 19.694 0.981445 19.0253 0.981445C18.3566 0.981445 17.7029 1.17946 17.1467 1.55052C16.5904 1.92158 16.1565 2.44906 15.8996 3.06643Z" stroke="#F91942" stroke-width="1.79122" stroke-linecap="round" stroke-linejoin="round"/>
<path d="M24.3997 17.0592C24.3997 18.122 24.0845 19.161 23.4941 20.0447C22.9036 20.9284 22.0643 21.6171 21.0824 22.0238C20.1005 22.4306 19.0201 22.537 17.9777 22.3296C16.9353 22.1223 15.9778 21.6105 15.2263 20.859C14.4747 20.1075 13.9629 19.15 13.7556 18.1076C13.5483 17.0652 13.6547 15.9847 14.0614 15.0028C14.4681 14.0209 15.1569 13.1816 16.0406 12.5912C16.9243 12.0007 17.9632 11.6855 19.026 11.6855C20.4512 11.6855 21.818 12.2517 22.8258 13.2595C23.8335 14.2672 24.3997 15.634 24.3997 17.0592Z" stroke="#F91942" stroke-width="1.79122"/>
</svg>
