<svg width="23" height="21" viewBox="0 0 23 21" fill="none" xmlns="http://www.w3.org/2000/svg">
<path opacity="0.03" d="M21.5195 0H1.51953C0.967246 0 0.519531 0.447715 0.519531 1V20C0.519531 20.5523 0.967246 21 1.51953 21H21.5195C22.0718 21 22.5195 20.5523 22.5195 20V1C22.5195 0.447715 22.0718 0 21.5195 0Z" fill="white"/>
<path d="M3.18941 7.72104H19.8584M8.74541 13.278L10.5974 15.13L14.2974 11.43M6.88941 2.16504V4.01704M16.1544 2.16504V4.01704M6.15441 18.834H16.8954C17.5529 18.9085 18.2187 18.8403 18.8474 18.634C19.1957 18.4565 19.4789 18.1733 19.6564 17.825C19.8627 17.1963 19.9309 16.5305 19.8564 15.873V6.98004C19.9309 6.32256 19.8627 5.65675 19.6564 5.02804C19.4789 4.67975 19.1957 4.39656 18.8474 4.21904C18.2187 4.01276 17.5529 3.94454 16.8954 4.01904H6.15241C5.49493 3.94454 4.82912 4.01276 4.20041 4.21904C3.85212 4.39656 3.56893 4.67975 3.39141 5.02804C3.18445 5.6566 3.11555 6.32242 3.18941 6.98004V15.87C3.11491 16.5275 3.18312 17.1933 3.38941 17.822C3.56693 18.1703 3.85012 18.4535 4.19841 18.631C4.82752 18.8386 5.49406 18.9079 6.15241 18.834H6.15441Z" stroke="#F91942" stroke-width="1.25" stroke-linecap="round" stroke-linejoin="round"/>
<path opacity="0.15" d="M18.849 8.06689H4.20898C3.6567 8.06689 3.20898 8.51461 3.20898 9.06689V17.8339C3.20898 18.3862 3.6567 18.8339 4.20898 18.8339H18.849C19.4013 18.8339 19.849 18.3862 19.849 17.8339V9.06689C19.849 8.51461 19.4013 8.06689 18.849 8.06689Z" fill="#F91942"/>
</svg>
