<svg width="19" height="20" viewBox="0 0 19 20" fill="none" xmlns="http://www.w3.org/2000/svg">
<path d="M1.38796 0.794292C0.78906 0.98842 0.276895 1.51298 0.099289 2.11601C0.0414639 2.3184 0.0332031 3.12795 0.0332031 9.97196C0.0332031 17.3447 0.0373335 17.609 0.11168 17.8527C0.301677 18.4599 0.822103 18.9762 1.4334 19.1538C1.58622 19.1992 1.82578 19.2198 2.16447 19.2198H2.66838L2.6849 17.4107C2.70142 15.7132 2.70555 15.5893 2.78816 15.3497C2.9988 14.7136 3.50271 14.2262 4.14292 14.028C4.35356 13.966 4.53117 13.9536 5.36137 13.9578C6.2494 13.9619 6.35266 13.966 6.5757 14.0486C7.19939 14.2799 7.66612 14.7591 7.86437 15.3786C7.92633 15.5769 7.93872 15.8288 7.95524 17.4107L7.97176 19.2198H8.47567C8.81436 19.2198 9.05392 19.1992 9.20674 19.1538C9.81804 18.9762 10.3385 18.4599 10.5285 17.8527C10.6028 17.609 10.6069 17.3447 10.6069 9.96783C10.6069 2.591 10.6028 2.32666 10.5285 2.08297C10.3385 1.4758 9.81804 0.959507 9.20674 0.781902C9.00848 0.724077 8.54175 0.715816 5.30355 0.719946C1.85056 0.719946 1.60687 0.724077 1.38796 0.794292ZM7.59177 3.46664C8.03372 3.72685 8.03372 4.31336 7.59177 4.57358C7.45134 4.65618 7.39351 4.66031 5.32007 4.66031C3.24663 4.66031 3.1888 4.65618 3.04837 4.57358C2.52794 4.27206 2.63946 3.54099 3.22597 3.39642C3.29619 3.3799 4.27922 3.36751 5.40268 3.37164C7.38525 3.3799 7.45134 3.38403 7.59177 3.46664ZM7.59177 6.11007C8.03372 6.37029 8.03372 6.9568 7.59177 7.21701C7.45134 7.29962 7.39351 7.30375 5.32007 7.30375C3.24663 7.30375 3.1888 7.29962 3.04837 7.21701C2.52794 6.91549 2.63946 6.18442 3.22597 6.03986C3.29619 6.02333 4.27922 6.01094 5.40268 6.01507C7.38525 6.02333 7.45134 6.02746 7.59177 6.11007ZM7.59177 8.75351C8.03372 9.01372 8.03372 9.60023 7.59177 9.86044C7.45134 9.94305 7.39351 9.94718 5.32007 9.94718C3.24663 9.94718 3.1888 9.94305 3.04837 9.86044C2.52794 9.55893 2.63946 8.82785 3.22597 8.68329C3.29619 8.66677 4.27922 8.65438 5.40268 8.65851C7.38525 8.66677 7.45134 8.6709 7.59177 8.75351ZM7.59177 11.3969C8.03372 11.6572 8.03372 12.2437 7.59177 12.5039C7.45134 12.5865 7.39351 12.5906 5.32007 12.5906C3.24663 12.5906 3.1888 12.5865 3.04837 12.5039C2.52794 12.2024 2.63946 11.4713 3.22597 11.3267C3.29619 11.3102 4.27922 11.2978 5.40268 11.3019C7.38525 11.3102 7.45134 11.3143 7.59177 11.3969Z" fill="black" fill-opacity="0.3"/>
<path d="M11.9272 9.89349C11.9272 14.1106 11.9107 17.2579 11.8859 17.4934C11.8281 18.0799 11.6133 18.6622 11.2829 19.129L11.2168 19.2198H12.2287H13.2448L13.2613 17.4521C13.2696 16.2253 13.2902 15.643 13.3233 15.5356C13.4472 15.1597 13.8354 14.7797 14.2113 14.6682C14.4467 14.598 16.0163 14.598 16.2517 14.6682C16.6276 14.7797 17.0158 15.1597 17.1356 15.5356C17.1728 15.643 17.1934 16.2171 17.2017 17.4107L17.2182 19.1372L17.4702 19.0092C17.9328 18.7779 18.2797 18.369 18.4491 17.8651C18.5358 17.6131 18.5358 17.5636 18.5358 10.9591C18.5358 4.32575 18.5358 4.3051 18.4491 4.04902C18.2467 3.43773 17.7923 2.98752 17.1852 2.78513C16.9374 2.70252 16.8506 2.69839 14.4261 2.69839H11.9272V9.89349ZM16.8424 5.44921C17.2843 5.70943 17.2843 6.29594 16.8424 6.55615C16.7019 6.63876 16.6358 6.64289 15.2315 6.64289C13.8272 6.64289 13.7611 6.63876 13.6207 6.55615C13.1002 6.25463 13.2118 5.52356 13.7983 5.379C13.8685 5.36248 14.5541 5.35009 15.3141 5.35422C16.6276 5.36248 16.7061 5.36661 16.8424 5.44921ZM16.8424 8.09265C17.2843 8.35286 17.2843 8.93937 16.8424 9.19958C16.7019 9.28219 16.6358 9.28632 15.2315 9.28632C13.8272 9.28632 13.7611 9.28219 13.6207 9.19958C13.1002 8.89807 13.2118 8.16699 13.7983 8.02243C13.8685 8.00591 14.5541 7.99352 15.3141 7.99765C16.6276 8.00591 16.7061 8.01004 16.8424 8.09265ZM16.8424 10.7361C17.2843 10.9963 17.2843 11.5828 16.8424 11.843C16.7019 11.9256 16.6358 11.9298 15.2315 11.9298C13.8272 11.9298 13.7611 11.9256 13.6207 11.843C13.1002 11.5415 13.2118 10.8104 13.7983 10.6659C13.8685 10.6493 14.5541 10.637 15.3141 10.6411C16.6276 10.6493 16.7061 10.6535 16.8424 10.7361Z" fill="black" fill-opacity="0.3"/>
<path d="M4.29543 15.3374C4.22109 15.3828 4.12609 15.4778 4.08065 15.5521C4.00218 15.6843 3.99805 15.7669 3.99805 17.4521V19.2199H5.31976H6.64148V17.4521C6.64148 15.7669 6.63735 15.6843 6.55887 15.5521C6.38953 15.2754 6.31105 15.2548 5.31976 15.2548C4.50608 15.2548 4.41934 15.263 4.29543 15.3374Z" fill="black" fill-opacity="0.3"/>
<path d="M14.5723 17.5678V19.2199H15.2331H15.894V17.5678V15.9156H15.2331H14.5723V17.5678Z" fill="black" fill-opacity="0.3"/>
</svg>
