<svg width="31" height="31" viewBox="0 0 31 31" fill="none" xmlns="http://www.w3.org/2000/svg">
<path fill-rule="evenodd" clip-rule="evenodd" d="M18.9788 13.6317C17.2229 16.0939 14.5985 16.0995 13.2036 13.9715C12.1722 14.5586 11.08 15.0316 9.94617 15.382C8.53902 15.673 7.66829 14.7212 6.90641 13.695C6.58488 14.2419 6.12229 14.6924 5.56702 14.9994C5.01176 15.3063 4.38422 15.4584 3.75004 15.4398C1.70761 15.3565 0.440395 13.8149 1.17562 12.2023C1.91085 10.5897 2.76048 8.98153 3.45239 7.34336C3.75559 6.62257 4.24981 6.49818 5.03724 6.50041C12.3325 6.51744 19.6278 6.51744 26.9231 6.50041C27.2451 6.44494 27.5764 6.50327 27.8601 6.66539C28.1438 6.8275 28.3622 7.08331 28.4779 7.3889C29.1443 8.95154 29.9284 10.482 30.6503 12.0302C30.8155 12.2955 30.9188 12.5946 30.9528 12.9054C30.9867 13.2161 30.9504 13.5304 30.8464 13.8252C30.7424 14.12 30.5735 14.3876 30.3521 14.6082C30.1307 14.8289 29.8626 14.9969 29.5674 15.0999C28.9121 15.435 28.1651 15.5462 27.4406 15.4164C26.7162 15.2866 26.0541 14.9231 25.5559 14.3813C25.4612 14.2827 25.3746 14.1764 25.2971 14.0637C24.208 14.6274 23.0606 15.0706 21.8753 15.3853C21.2688 15.4392 20.6608 15.2982 20.1399 14.9828C19.619 14.6674 19.2123 14.1941 18.9788 13.6317Z" fill="#FEFEFE"/>
<path fill-rule="evenodd" clip-rule="evenodd" d="M2.40023 15.9941H5.42334V20.9708H26.4473V16.0197H29.456C29.456 18.4397 29.6248 20.8486 29.406 23.232C29.2117 25.3422 26.8216 27.2514 24.2683 27.3047C18.7241 27.4157 13.1699 27.4379 7.6268 27.2991C6.31604 27.3039 5.05146 26.8153 4.08436 25.9305C3.11726 25.0457 2.51844 23.8295 2.4069 22.5235C2.37469 20.3889 2.40023 18.2565 2.40023 15.9941Z" fill="#FEFEFE"/>
<path fill-rule="evenodd" clip-rule="evenodd" d="M3.27148 5.29665C3.92714 4.5086 4.76092 3.8879 5.70392 3.48582C6.64692 3.08375 7.67206 2.91186 8.69463 2.98435C11.868 2.97916 15.0414 2.97546 18.2148 2.97324C19.9196 2.97324 21.6256 2.95325 23.3303 2.97324C25.8737 3.00545 27.5751 3.74179 28.6447 5.29665H3.27148Z" fill="#FEFEFE"/>
</svg>
