<svg width="40" height="33" viewBox="0 0 40 33" fill="none" xmlns="http://www.w3.org/2000/svg">
<g clip-path="url(#clip0_6340_11343)">
<g clip-path="url(#clip1_6340_11343)">
<g clip-path="url(#clip2_6340_11343)">
<path d="M29.0859 0.495117H2.25213C1.65509 0.495958 1.08274 0.733507 0.660563 1.15568C0.238389 1.57786 0.000841106 2.15021 0 2.74725L0 18.846C0.000280145 19.4434 0.23758 20.0163 0.659815 20.439C1.08205 20.8616 1.65472 21.0994 2.25213 21.1003H3.99237V27.0936C3.99209 27.2804 4.04725 27.463 4.15088 27.6184C4.2545 27.7738 4.40192 27.8949 4.57446 27.9664C4.74699 28.0379 4.93687 28.0566 5.12003 28.0201C5.30319 27.9836 5.47139 27.8935 5.60331 27.7613L12.2633 21.1003H13.5997C13.85 21.1003 14.0901 21.0008 14.2671 20.8239C14.444 20.6469 14.5435 20.4068 14.5435 20.1565C14.5435 19.9062 14.444 19.6661 14.2671 19.4892C14.0901 19.3122 13.85 19.2127 13.5997 19.2127C13.5997 19.2127 11.8266 19.2127 11.8086 19.2127C11.5811 19.2277 11.3668 19.3249 11.2056 19.4862L5.87992 24.8097C5.87992 24.8097 5.87992 20.0913 5.87992 20.0669C5.85901 19.8323 5.75105 19.614 5.57728 19.4549C5.4035 19.2958 5.1765 19.2076 4.94091 19.2074H2.25213C2.15516 19.2074 2.06216 19.1689 1.99359 19.1003C1.92502 19.0318 1.88649 18.9388 1.88649 18.8418V2.74725C1.88649 2.65028 1.92502 2.55728 1.99359 2.48871C2.06216 2.42013 2.15516 2.38161 2.25213 2.38161H29.0859C29.1829 2.38161 29.2759 2.42013 29.3444 2.48871C29.413 2.55728 29.4515 2.65028 29.4515 2.74725V8.92392C29.4515 9.17423 29.551 9.41428 29.728 9.59127C29.905 9.76827 30.145 9.8677 30.3953 9.8677C30.6456 9.8677 30.8857 9.76827 31.0627 9.59127C31.2397 9.41428 31.3391 9.17423 31.3391 8.92392V2.74725C31.3382 2.15002 31.1006 1.57751 30.6782 1.15531C30.2557 0.733101 29.6831 0.495678 29.0859 0.495117Z" fill="#F91942"/>
<path d="M19.0767 13.2275H36.0339C36.5961 13.2275 37.1352 13.4509 37.5327 13.8484C37.9303 14.2459 38.1536 14.785 38.1536 15.3472V24.8856C38.1536 25.4478 37.9303 25.9869 37.5327 26.3845C37.1352 26.782 36.5961 27.0053 36.0339 27.0053V29.6814L30.9955 26.4023L19.0767 27.0053C18.5145 27.0053 17.9754 26.782 17.5779 26.3845C17.1804 25.9869 16.957 25.4478 16.957 24.8856V15.3472C16.957 14.785 17.1804 14.2459 17.5779 13.8484C17.9754 13.4509 18.5145 13.2275 19.0767 13.2275Z" fill="#F91942" fill-opacity="0.18"/>
<path d="M37.7483 12.0371H18.965C18.368 12.038 17.7956 12.2755 17.3735 12.6977C16.9513 13.1199 16.7137 13.6922 16.7129 14.2893V25.2722C16.7137 25.8693 16.9513 26.4416 17.3735 26.8638C17.7956 27.286 18.368 27.5235 18.965 27.5244H30.7291L35.4983 32.2936C35.6302 32.4258 35.7984 32.5159 35.9816 32.5524C36.1648 32.5889 36.3546 32.5702 36.5272 32.4987C36.6997 32.4272 36.8471 32.3061 36.9507 32.1507C37.0544 31.9953 37.1095 31.8127 37.1093 31.6259V27.5191H37.7579C38.3549 27.5182 38.9273 27.2807 39.3494 26.8585C39.7716 26.4363 40.0092 25.864 40.01 25.2669V14.2893C40.0096 13.9928 39.9507 13.6994 39.8368 13.4257C39.7229 13.152 39.5561 12.9035 39.3461 12.6943C39.136 12.4851 38.8868 12.3194 38.6126 12.2067C38.3385 12.0939 38.0448 12.0363 37.7483 12.0371ZM38.114 25.2722C38.114 25.3692 38.0755 25.4622 38.0069 25.5308C37.9383 25.5994 37.8453 25.6379 37.7483 25.6379H36.1586C35.921 25.638 35.6922 25.7278 35.5179 25.8893C35.3436 26.0508 35.2367 26.2721 35.2185 26.5091C35.2185 26.5292 35.2185 29.3441 35.2185 29.3441L31.7921 25.9177L31.7815 25.9071L31.7434 25.8721C31.5717 25.721 31.3509 25.6377 31.1223 25.6379H18.965C18.868 25.6379 18.775 25.5994 18.7065 25.5308C18.6379 25.4622 18.5994 25.3692 18.5994 25.2722V14.2893C18.5994 14.1923 18.6379 14.0993 18.7065 14.0307C18.775 13.9621 18.868 13.9236 18.965 13.9236H37.7473C37.8443 13.9236 37.9372 13.9621 38.0058 14.0307C38.0744 14.0993 38.1129 14.1923 38.1129 14.2893L38.114 25.2722Z" fill="#F91942"/>
<path d="M28.3573 18.8369C28.1708 18.8369 27.9884 18.8922 27.8333 18.9959C27.6782 19.0995 27.5572 19.2468 27.4858 19.4192C27.4145 19.5915 27.3958 19.7812 27.4322 19.9642C27.4686 20.1471 27.5584 20.3152 27.6903 20.4471C27.8222 20.579 27.9903 20.6689 28.1733 20.7053C28.3562 20.7417 28.5459 20.723 28.7183 20.6516C28.8906 20.5802 29.038 20.4593 29.1416 20.3042C29.2452 20.1491 29.3005 19.9667 29.3005 19.7802C29.3003 19.5301 29.2008 19.2903 29.024 19.1135C28.8471 18.9366 28.6074 18.8372 28.3573 18.8369Z" fill="#F91942"/>
<path d="M24.2556 6.7334H7.08636C6.83605 6.7334 6.59599 6.83284 6.419 7.00984C6.24201 7.18683 6.14258 7.42687 6.14258 7.67718C6.14258 7.92748 6.24201 8.16754 6.419 8.34453C6.59599 8.52153 6.83605 8.62096 7.08636 8.62096H24.2556C24.5059 8.62096 24.7459 8.52153 24.9229 8.34453C25.0999 8.16754 25.1993 7.92748 25.1993 7.67718C25.1993 7.42687 25.0999 7.18683 24.9229 7.00984C24.7459 6.83284 24.5059 6.7334 24.2556 6.7334Z" fill="#F91942"/>
<path d="M13.6004 12.9727H7.08244C6.83214 12.9727 6.59209 13.0721 6.41509 13.2491C6.2381 13.4261 6.13867 13.6661 6.13867 13.9164C6.13867 14.1667 6.2381 14.4068 6.41509 14.5838C6.59209 14.7608 6.83214 14.8602 7.08244 14.8602H13.6004C13.8507 14.8602 14.0907 14.7608 14.2677 14.5838C14.4447 14.4068 14.5442 14.1667 14.5442 13.9164C14.5442 13.6661 14.4447 13.4261 14.2677 13.2491C14.0907 13.0721 13.8507 12.9727 13.6004 12.9727Z" fill="#F91942"/>
<path d="M23.9706 18.8369C23.784 18.8369 23.6017 18.8922 23.4466 18.9959C23.2914 19.0995 23.1705 19.2468 23.0992 19.4192C23.0278 19.5915 23.0091 19.7812 23.0455 19.9642C23.0819 20.1471 23.1717 20.3152 23.3036 20.4471C23.4355 20.579 23.6036 20.6689 23.7866 20.7053C23.9696 20.7417 24.1592 20.723 24.3316 20.6516C24.5039 20.5802 24.6512 20.4593 24.7549 20.3042C24.8585 20.1491 24.9138 19.9667 24.9138 19.7802C24.9136 19.5301 24.8141 19.2903 24.6373 19.1135C24.4604 18.9366 24.2207 18.8372 23.9706 18.8369Z" fill="#F91942"/>
<path d="M32.7401 18.8369C32.5536 18.8369 32.3712 18.8922 32.2161 18.9959C32.061 19.0995 31.9401 19.2468 31.8687 19.4192C31.7973 19.5915 31.7786 19.7812 31.815 19.9642C31.8514 20.1471 31.9412 20.3152 32.0732 20.4471C32.2051 20.579 32.3731 20.6689 32.5561 20.7053C32.7391 20.7417 32.9287 20.723 33.1011 20.6516C33.2735 20.5802 33.4208 20.4593 33.5244 20.3042C33.6281 20.1491 33.6834 19.9667 33.6834 19.7802C33.6831 19.5301 33.5836 19.2903 33.4068 19.1135C33.2299 18.9366 32.9902 18.8372 32.7401 18.8369Z" fill="#F91942"/>
</g>
</g>
</g>
<defs>
<clipPath id="clip0_6340_11343">
<rect width="40" height="32.06" fill="white" transform="translate(0 0.5)"/>
</clipPath>
<clipPath id="clip1_6340_11343">
<rect width="40" height="32.06" fill="white" transform="translate(0 0.5)"/>
</clipPath>
<clipPath id="clip2_6340_11343">
<rect width="40" height="32.0693" fill="white" transform="translate(0 0.495117)"/>
</clipPath>
</defs>
</svg>
