<svg width="33" height="33" viewBox="0 0 33 33" fill="none" xmlns="http://www.w3.org/2000/svg">
<path fill-rule="evenodd" clip-rule="evenodd" d="M0.916016 17.5023C1.268 17.3837 1.63179 17.3035 2.00102 17.2632C12.1005 17.2521 22.1999 17.2521 32.2993 17.2632C32.4985 17.2837 32.6963 17.3159 32.8917 17.3595C32.9381 18.3727 32.9196 19.3878 32.8363 20.3986C32.8053 20.6378 32.0901 20.9522 31.686 20.9589C28.0324 21.0043 24.3876 20.9921 20.7385 20.991C14.6277 20.991 8.51735 20.9817 2.40735 20.9633C1.89228 20.8866 1.39037 20.7386 0.916016 20.5237L0.916016 17.5023Z" fill="#FEFEFE"/>
<path fill-rule="evenodd" clip-rule="evenodd" d="M10.8151 28.8896C14.0591 28.8896 17.5687 28.9051 21.0895 28.8807C22.1424 28.873 23.4078 29.3036 23.9016 27.8035C23.9315 27.7127 24.1053 27.6684 24.2116 27.602C24.43 27.4548 24.6099 27.2573 24.7361 27.0261C24.8623 26.795 24.9312 26.5369 24.9369 26.2736C24.9427 26.0103 24.8851 25.7495 24.7691 25.5131C24.6531 25.2766 24.4821 25.0715 24.2703 24.9149C24.0301 24.761 23.6769 24.565 23.6426 24.348C23.4986 23.4158 22.8266 23.5487 22.2033 23.5487C18.9837 23.5487 15.7644 23.5513 12.5456 23.5564C11.5181 23.5564 10.3102 23.1612 9.86627 24.6414C9.82198 24.7876 9.52195 24.8573 9.34259 24.9658C8.99246 25.2918 8.78283 25.7411 8.75804 26.2188C8.73324 26.6965 8.89523 27.1651 9.20973 27.5256C9.67916 27.8732 10.1032 28.2806 10.8173 28.8918M2.6875 32.1833V21.8237H31.1413C31.1413 25.0876 31.1557 28.3083 31.1125 31.5279C31.1125 31.7715 30.7383 32.0881 30.4637 32.2265C30.1767 32.3011 29.8772 32.3147 29.5846 32.2664H4.12015C3.66401 32.2664 3.20675 32.2166 2.69193 32.1856" fill="#FEFEFE"/>
<path fill-rule="evenodd" clip-rule="evenodd" d="M24.6398 16.4574H9.18945C9.33781 15.5406 9.71496 14.6759 10.286 13.9435C10.8571 13.211 11.6037 12.6343 12.4567 12.2669C13.4431 11.7188 14.3975 10.9925 15.5434 12.2857C16.2365 13.0684 18.009 12.7363 18.8294 12.0045C19.0608 11.7985 19.3487 11.5029 19.6044 11.5029C21.5674 11.5029 24.467 14.3328 24.6342 16.4574" fill="#FEFEFE"/>
<path fill-rule="evenodd" clip-rule="evenodd" d="M12.9844 7.15511C14.5787 6.90157 16.0778 6.75432 17.5237 6.3956C17.8605 6.24358 18.2305 6.18016 18.5987 6.21136C18.9668 6.24255 19.3209 6.36733 19.6273 6.57385C20.069 6.78098 20.5455 6.90413 21.0323 6.937C21.1053 9.01512 18.8833 11.4918 16.9834 11.5771C14.7392 11.6778 13.2058 9.19227 12.9844 7.15511Z" fill="#FEFEFE"/>
<path fill-rule="evenodd" clip-rule="evenodd" d="M20.5927 6.5262C19.0029 4.55879 17.5259 5.79327 16.0146 6.10991C15.1229 6.23246 14.2232 6.28687 13.3232 6.27266C12.9954 4.50344 13.063 3.09403 14.5322 2.13745C15.3707 1.72799 16.3065 1.5599 17.2351 1.652C18.1637 1.74409 19.0483 2.09273 19.79 2.65892C20.8972 3.56236 20.9658 4.77358 20.5971 6.53395" fill="#FEFEFE"/>
<path fill-rule="evenodd" clip-rule="evenodd" d="M17.0043 28.2454C15.6105 28.1574 14.2121 28.1718 12.8204 28.2886C11.3545 28.51 10.6061 27.5933 9.73363 26.8293C9.54652 26.6655 9.4657 26.02 9.58638 25.9325C10.3403 25.379 10.6072 24.2275 11.8217 24.2364C15.2539 24.2618 18.6794 24.2364 22.1072 24.2497C23.0017 24.2497 24.6436 25.9215 24.2351 26.4551C23.6649 27.1991 23.2043 28.2498 21.9555 28.2354C20.3047 28.2166 18.6539 28.2354 17.0032 28.2354L17.0043 28.2454Z" fill="#FEFEFE"/>
</svg>
