<svg width="24" height="20" viewBox="0 0 24 20" fill="none" xmlns="http://www.w3.org/2000/svg">
<path d="M12.8448 0.157063C11.406 0.592259 5.20671 2.59505 5.05128 2.67054C4.81148 2.79488 4.65161 2.95919 4.50951 3.22564L4.40737 3.42547L4.39405 7.31559L4.38517 11.2102L4.17201 11.1435C3.31494 10.886 2.28024 11.148 1.63188 11.7963C1.12564 12.3026 0.876953 12.9065 0.876953 13.6393C0.876953 14.3897 1.10343 14.9537 1.60968 15.4644C2.9952 16.8588 5.31329 16.2993 5.95276 14.4164C6.04602 14.1322 6.05046 14.1011 6.06378 10.7039L6.0771 7.28007L9.28334 6.26313L12.4896 5.24175L12.5029 6.63615C12.5073 7.40441 12.5073 8.04388 12.4985 8.05276C12.4896 8.06164 12.3519 8.03944 12.1965 7.99947C10.6467 7.63533 9.12791 8.76328 9.02133 10.3531C8.94584 11.4055 9.53646 12.4225 10.4779 12.8621C10.922 13.0708 11.3439 13.1508 11.7968 13.1152C12.8582 13.0309 13.7286 12.3603 14.0749 11.3611L14.1771 11.0636V5.88566V0.71216L14.0572 0.525647C13.8085 0.152622 13.3378 0.00607681 12.8448 0.157063Z" fill="black"/>
<path d="M18.6008 7.36214C18.1522 7.44651 17.8103 7.79289 17.7126 8.25029C17.6815 8.39684 17.6638 9.51147 17.6638 11.4299C17.6638 14.2231 17.6593 14.383 17.5883 14.3519C17.1975 14.2054 16.3493 14.2098 15.9141 14.3697C14.6929 14.8049 13.969 16.0616 14.2222 17.3095C14.3909 18.1577 14.8927 18.8105 15.6432 19.1657C16.0207 19.3433 16.336 19.4144 16.7978 19.41C17.5838 19.4055 18.281 19.0725 18.7873 18.4596C18.996 18.211 19.2402 17.7136 19.3024 17.4027C19.3335 17.2473 19.3513 16.2392 19.3513 14.4096C19.3513 11.8074 19.3557 11.6564 19.4312 11.6875C19.782 11.8207 20.0929 11.8962 20.6391 11.9761C21.7049 12.1315 22.3399 12.2958 22.8239 12.5356C23.1037 12.6777 23.3613 12.6777 23.5034 12.5312C23.6011 12.4335 23.6144 12.3847 23.6144 12.0694C23.6144 11.0968 23.3435 10.1243 22.9305 9.60917C22.7884 9.43154 22.3799 9.11624 22.109 8.97858C22.0246 8.93417 21.6827 8.79651 21.3496 8.67217C20.5858 8.37908 20.2572 8.197 19.8397 7.82398C19.3646 7.39766 19.0404 7.27776 18.6008 7.36214Z" fill="black"/>
</svg>
