<svg width="19" height="22" viewBox="0 0 19 22" fill="none" xmlns="http://www.w3.org/2000/svg">
<path d="M4.75 13C5.74456 13 6.69811 13.3954 7.40137 14.0986C8.10463 14.8019 8.5 15.7554 8.5 16.75C8.5 17.7446 8.10463 18.6981 7.40137 19.4014C6.69811 20.1046 5.74456 20.5 4.75 20.5C3.75544 20.5 2.80189 20.1046 2.09863 19.4014C1.39537 18.6981 1 17.7446 1 16.75C1 15.7554 1.39537 14.8019 2.09863 14.0986C2.80189 13.3954 3.75544 13 4.75 13ZM18 14V20H12V14H18ZM14.2334 9.5H5.7666L10 2.44336L14.2334 9.5Z" fill="#FEDDE3" stroke="#F91942" stroke-width="2"/>
</svg>
