<svg width="23" height="23" viewBox="0 0 23 23" fill="none" xmlns="http://www.w3.org/2000/svg">
<path opacity="0.03" d="M21.2305 1H1.23047C0.678184 1 0.230469 1.44772 0.230469 2V21C0.230469 21.5523 0.678184 22 1.23047 22H21.2305C21.7828 22 22.2305 21.5523 22.2305 21V2C22.2305 1.44772 21.7828 1 21.2305 1Z" fill="white"/>
<path opacity="0.15" d="M12.125 19.9997C15.072 16.9687 18.019 14.2547 18.019 10.9067C18.0409 9.32137 17.4324 7.79221 16.3271 6.65545C15.2218 5.51868 13.7104 4.86738 12.125 4.84473C10.5397 4.86738 9.02824 5.51868 7.92298 6.65545C6.81772 7.79221 6.20914 9.32137 6.23104 10.9067C6.23104 14.2547 9.17804 16.9687 12.125 19.9997Z" fill="#F91942"/>
<path d="M13.2305 11C14.335 11 15.2305 10.1046 15.2305 9C15.2305 7.89543 14.335 7 13.2305 7C12.1259 7 11.2305 7.89543 11.2305 9C11.2305 10.1046 12.1259 11 13.2305 11Z" fill="white"/>
<path d="M13.2312 20C16.7312 16.4 20.2312 13.176 20.2312 9.2C20.2444 8.26759 20.0738 7.34171 19.7292 6.47523C19.3845 5.60875 18.8726 4.81865 18.2226 4.15005C17.5725 3.48145 16.7972 2.94745 15.9407 2.57854C15.0843 2.20963 14.1636 2.01304 13.2312 2C12.2988 2.01304 11.3781 2.20963 10.5216 2.57854C9.6652 2.94745 8.88983 3.48145 8.2398 4.15005C7.58978 4.81865 7.07782 5.60875 6.73318 6.47523C6.38854 7.34171 6.21796 8.26759 6.23118 9.2C6.23118 13.176 9.73118 16.4 13.2312 20Z" stroke="#F91942" stroke-width="1.5" stroke-linecap="round" stroke-linejoin="round"/>
<path d="M13.2305 11C13.626 11 14.0127 10.8827 14.3416 10.6629C14.6705 10.4432 14.9269 10.1308 15.0782 9.76537C15.2296 9.39992 15.2692 8.99778 15.192 8.60982C15.1149 8.22186 14.9244 7.86549 14.6447 7.58579C14.365 7.30608 14.0086 7.1156 13.6206 7.03843C13.2327 6.96126 12.8306 7.00087 12.4651 7.15224C12.0996 7.30362 11.7873 7.55996 11.5675 7.88886C11.3478 8.21776 11.2305 8.60444 11.2305 9C11.2305 9.53043 11.4412 10.0391 11.8163 10.4142C12.1913 10.7893 12.7 11 13.2305 11Z" stroke="#F91942" stroke-width="1.5" stroke-linecap="round" stroke-linejoin="round"/>
</svg>
