<svg width="97" height="98" viewBox="0 0 97 98" fill="none" xmlns="http://www.w3.org/2000/svg">
<g filter="url(#filter0_d_6408_1822)">
<path d="M48.415 36.8973C45.2574 36.8847 42.6943 34.315 42.715 31.1846C42.7356 28.0144 45.3172 25.4831 48.5111 25.5001C51.5971 25.5171 54.1617 28.1304 54.1432 31.2378C54.1232 34.3652 51.5483 36.9098 48.415 36.8973ZM44.6797 31.2194C44.6812 33.2868 46.369 34.9694 48.4416 34.9694C50.4995 34.9694 52.1791 33.272 52.1777 31.1943C52.1762 29.1342 50.5002 27.4693 48.4306 27.4715C46.3454 27.4737 44.6775 29.1401 44.6797 31.2194Z" fill="white"/>
<path d="M48.4187 38.7396C49.4786 38.7499 50.5408 38.6864 51.5904 38.9043C53.1253 39.2234 54.4792 39.8978 55.6448 40.9452C55.9469 41.2162 56.1005 41.5479 55.9934 41.9601C55.8937 42.3427 55.6441 42.5857 55.2614 42.6751C54.8958 42.7607 54.5937 42.616 54.3263 42.3767C53.4185 41.5627 52.3667 41.0397 51.1716 40.7982C50.7986 40.7228 50.4211 40.6896 50.0444 40.6844C48.689 40.6667 47.3307 40.5832 45.9804 40.759C44.6612 40.9304 43.5163 41.4999 42.5288 42.3863C42.3316 42.5628 42.124 42.7024 41.8463 42.712C41.4083 42.7268 41.0552 42.5229 40.8853 42.1462C40.7132 41.7658 40.7937 41.333 41.1143 41.0294C41.8182 40.3631 42.6204 39.8439 43.5082 39.4561C44.5881 38.9848 45.7175 38.7477 46.8949 38.7396C47.4031 38.7366 47.9105 38.7396 48.4187 38.7396Z" fill="white"/>
</g>
<defs>
<filter id="filter0_d_6408_1822" x="0.796875" y="0.5" width="95.2305" height="97.2127" filterUnits="userSpaceOnUse" color-interpolation-filters="sRGB">
<feFlood flood-opacity="0" result="BackgroundImageFix"/>
<feColorMatrix in="SourceAlpha" type="matrix" values="0 0 0 0 0 0 0 0 0 0 0 0 0 0 0 0 0 0 127 0" result="hardAlpha"/>
<feOffset dy="15"/>
<feGaussianBlur stdDeviation="20"/>
<feComposite in2="hardAlpha" operator="out"/>
<feColorMatrix type="matrix" values="0 0 0 0 0.964706 0 0 0 0 0.192157 0 0 0 0 0.156863 0 0 0 0.45 0"/>
<feBlend mode="normal" in2="BackgroundImageFix" result="effect1_dropShadow_6408_1822"/>
<feBlend mode="normal" in="SourceGraphic" in2="effect1_dropShadow_6408_1822" result="shape"/>
</filter>
</defs>
</svg>
