<svg width="22" height="23" viewBox="0 0 22 23" fill="none" xmlns="http://www.w3.org/2000/svg">
<path fill-rule="evenodd" clip-rule="evenodd" d="M10.9893 1.971C5.89212 1.971 1.76007 6.10305 1.76007 11.2002C1.76007 16.2973 5.89212 20.4294 10.9893 20.4294C16.0864 20.4294 20.2185 16.2973 20.2185 11.2002C20.2185 6.10305 16.0864 1.971 10.9893 1.971ZM0.0820312 11.2002C0.0820312 5.1763 4.96536 0.292969 10.9893 0.292969C17.0132 0.292969 21.8965 5.1763 21.8965 11.2002C21.8965 17.2241 17.0132 22.1074 10.9893 22.1074C4.96536 22.1074 0.0820312 17.2241 0.0820312 11.2002Z" fill="#F91942"/>
<path d="M7.21165 10.3608C7.90672 10.3608 8.47018 9.79734 8.47018 9.10228C8.47018 8.40721 7.90672 7.84375 7.21165 7.84375C6.51659 7.84375 5.95312 8.40721 5.95312 9.10228C5.95312 9.79734 6.51659 10.3608 7.21165 10.3608Z" fill="#F91942"/>
<path d="M14.7663 10.3608C15.4614 10.3608 16.0249 9.79734 16.0249 9.10228C16.0249 8.40721 15.4614 7.84375 14.7663 7.84375C14.0713 7.84375 13.5078 8.40721 13.5078 9.10228C13.5078 9.79734 14.0713 10.3608 14.7663 10.3608Z" fill="#F91942"/>
<path fill-rule="evenodd" clip-rule="evenodd" d="M6.20703 12.9924C6.60779 12.7598 7.12124 12.8961 7.35385 13.2969C7.72362 13.9339 8.25422 14.4627 8.89254 14.8302C9.53086 15.1978 10.2545 15.3912 10.9911 15.3912C11.7277 15.3912 12.4514 15.1978 13.0897 14.8302C13.728 14.4627 14.2586 13.9339 14.6284 13.2969C14.861 12.8961 15.3744 12.7598 15.7752 12.9924C16.1759 13.225 16.3123 13.7385 16.0796 14.1393C15.5623 15.0305 14.82 15.7702 13.927 16.2844C13.034 16.7986 12.0216 17.0693 10.9911 17.0693C9.96063 17.0693 8.94822 16.7986 8.05521 16.2844C7.16219 15.7702 6.41989 15.0305 5.90258 14.1393C5.66996 13.7385 5.80627 13.225 6.20703 12.9924Z" fill="#F91942"/>
</svg>
