<svg width="22" height="20" viewBox="0 0 22 20" fill="none" xmlns="http://www.w3.org/2000/svg">
<path d="M11.6557 0.501413L14.6522 6.2629L21.3504 7.18702C21.5238 7.2114 21.6677 7.32659 21.7217 7.48434C21.7757 7.64209 21.7306 7.81516 21.6052 7.93106L16.7592 12.4148L17.9034 18.7471C17.9334 18.9104 17.8628 19.0757 17.7211 19.1733C17.5794 19.2709 17.3914 19.2838 17.2363 19.2066L11.2448 16.2175L5.25333 19.2075C5.09834 19.2849 4.91023 19.2722 4.76848 19.1747C4.62672 19.0771 4.55604 18.9118 4.58629 18.7484L5.73044 12.4148L0.883094 7.93106C0.757725 7.81516 0.712595 7.64209 0.766608 7.48434C0.820621 7.32659 0.964453 7.2114 1.13786 7.18702L7.83611 6.2629L10.8339 0.501413C10.9102 0.352435 11.0698 0.257813 11.2448 0.257812C11.4198 0.257812 11.5794 0.352435 11.6557 0.501413Z" fill="black"/>
</svg>
