<svg width="15" height="14" viewBox="0 0 15 14" fill="none" xmlns="http://www.w3.org/2000/svg">
<path d="M5.13849 13.1673C4.8782 13.1673 4.69348 13.0813 4.53395 12.928C3.73628 12.1597 2.93862 11.3936 2.14095 10.6274C1.51961 10.0312 0.898272 9.43508 0.276933 8.84103C-0.0694218 8.50937 -0.0946112 8.06226 0.222356 7.70331C0.677865 7.18902 1.13337 6.67684 1.59308 6.16465C1.91634 5.80571 2.42853 5.79521 2.76019 6.15416C3.36474 6.80908 3.95879 7.4745 4.55284 8.13993C4.6431 8.24278 4.68298 8.23649 4.76485 8.13153C6.0684 6.47532 7.52099 4.96186 9.173 3.64781C10.6004 2.51219 12.1307 1.54869 13.8519 0.916857C14.0052 0.860181 14.1542 0.79091 14.3242 0.784613C14.595 0.776216 14.8238 0.923154 14.9309 1.17505C15.04 1.42694 15.0002 1.69773 14.7986 1.88245C14.4082 2.2372 14.0073 2.57936 13.6126 2.92991C10.9384 5.31451 8.62303 7.99718 6.77371 11.0682C6.44414 11.6161 6.12088 12.1702 5.80811 12.7286C5.65278 13.0057 5.41977 13.1568 5.13849 13.1673Z" fill="black"/>
</svg>
