<svg width="20" height="20" viewBox="0 0 20 20" fill="none" xmlns="http://www.w3.org/2000/svg">
<path d="M8.66269 0.0131283C8.58661 0.0239964 8.34206 0.0620384 8.11924 0.0946465C4.82589 0.556583 1.89123 2.87714 0.657582 5.99115C0.168471 7.23023 0 8.1378 0 9.54535C0 10.6703 0.0652148 11.1866 0.320639 12.0996C1.22821 15.3332 3.74441 17.8494 6.97798 18.7569C7.89099 19.0124 8.40727 19.0776 9.53222 19.0776C10.668 19.0776 11.168 19.0124 12.1082 18.7515C15.32 17.8494 17.8362 15.3277 18.7438 12.0996C18.9992 11.1866 19.0644 10.6703 19.0644 9.54535C19.0644 8.4204 18.9992 7.90411 18.7438 6.99111C17.8417 3.76841 15.3092 1.2359 12.0865 0.333767C11.2985 0.110949 10.6898 0.0294304 9.72243 0.00769234C9.21702 -0.00317574 8.73878 -0.00317574 8.66269 0.0131283ZM10.0105 3.60537C10.0866 3.65972 10.2007 3.77928 10.2605 3.8608C10.3691 4.00753 10.3746 4.08362 10.3909 6.59982L10.4072 9.19211L11.6789 10.4692C13.0484 11.8442 13.0756 11.8822 12.9832 12.355C12.9343 12.6213 12.6082 12.9474 12.3419 12.9963C11.8637 13.0887 11.8473 13.0724 10.2713 11.5127C9.47244 10.7138 8.78226 9.98555 8.73878 9.88773C8.679 9.74643 8.66269 9.19211 8.66269 6.9422C8.66269 5.11075 8.68443 4.12166 8.72248 4.0184C8.79856 3.81732 8.9779 3.62711 9.17898 3.53472C9.39636 3.43147 9.82569 3.46951 10.0105 3.60537Z" fill="black" fill-opacity="0.3"/>
</svg>
